<mxfile host="65bd71144e" modified="2020-11-23T00:21:14.574Z" agent="5.0 (Macintosh; Intel Mac OS X 10_15_7) AppleWebKit/537.36 (KHTML, like Gecko) Code/1.51.1 Chrome/83.0.4103.122 Electron/9.3.3 Safari/537.36" version="13.6.5" etag="gkvspLHiDsF2PogA4LAT" pages="25">
    <diagram id="34b8e5ee-87ce-1cca-80bf-6bdc521951eb" name="01 - testing">
        <mxGraphModel dx="799" dy="720" grid="1" gridSize="10" guides="1" tooltips="1" connect="1" arrows="1" fold="1" page="1" pageScale="1" pageWidth="3300" pageHeight="4681" background="#ffffff" math="0" shadow="0">
            <root>
                <mxCell id="0"/>
                <mxCell id="1" parent="0"/>
                <mxCell id="23" style="edgeStyle=orthogonalEdgeStyle;rounded=0;html=1;exitX=1;exitY=0.5;jettySize=auto;orthogonalLoop=1;strokeColor=#000000;strokeWidth=3;fontSize=18;fontColor=#000000;" parent="1" source="3" target="14" edge="1">
                    <mxGeometry relative="1" as="geometry"/>
                </mxCell>
                <mxCell id="3" value="create-react-app" style="rounded=0;whiteSpace=wrap;html=1;strokeColor=#6c8ebf;strokeWidth=2;fillColor=#dae8fc;fontSize=24;fontColor=#000000;align=center;" parent="1" vertex="1">
                    <mxGeometry x="460" y="140" width="240" height="70" as="geometry"/>
                </mxCell>
                <mxCell id="14" value="Stuff We Got" style="rounded=0;whiteSpace=wrap;html=1;strokeColor=#82b366;strokeWidth=2;fillColor=#d5e8d4;fontSize=24;fontColor=#000000;align=center;" parent="1" vertex="1">
                    <mxGeometry x="760" y="150" width="420" height="50" as="geometry"/>
                </mxCell>
                <mxCell id="15" value="Webpack" style="rounded=0;whiteSpace=wrap;html=1;strokeColor=#000000;strokeWidth=2;fillColor=#ffffff;fontSize=24;fontColor=#000000;align=center;" parent="1" vertex="1">
                    <mxGeometry x="760" y="250" width="180" height="50" as="geometry"/>
                </mxCell>
                <mxCell id="16" value="Links together JS files" style="rounded=0;whiteSpace=wrap;html=1;strokeColor=#000000;strokeWidth=2;fillColor=#ffffff;fontSize=18;fontColor=#000000;align=center;" parent="1" vertex="1">
                    <mxGeometry x="940" y="250" width="240" height="50" as="geometry"/>
                </mxCell>
                <mxCell id="17" value="Babel" style="rounded=0;whiteSpace=wrap;html=1;strokeColor=#000000;strokeWidth=2;fillColor=#ffffff;fontSize=24;fontColor=#000000;align=center;" parent="1" vertex="1">
                    <mxGeometry x="760" y="300" width="180" height="50" as="geometry"/>
                </mxCell>
                <mxCell id="18" value="Turns ES2015/6/7 and JSX into ES5 code" style="rounded=0;whiteSpace=wrap;html=1;strokeColor=#000000;strokeWidth=2;fillColor=#ffffff;fontSize=18;fontColor=#000000;align=center;" parent="1" vertex="1">
                    <mxGeometry x="940" y="300" width="240" height="50" as="geometry"/>
                </mxCell>
                <mxCell id="19" value="React" style="rounded=0;whiteSpace=wrap;html=1;strokeColor=#000000;strokeWidth=2;fillColor=#ffffff;fontSize=24;fontColor=#000000;align=center;" parent="1" vertex="1">
                    <mxGeometry x="760" y="200" width="180" height="50" as="geometry"/>
                </mxCell>
                <mxCell id="20" value="The React lib!" style="rounded=0;whiteSpace=wrap;html=1;strokeColor=#000000;strokeWidth=2;fillColor=#ffffff;fontSize=18;fontColor=#000000;align=center;" parent="1" vertex="1">
                    <mxGeometry x="940" y="200" width="240" height="50" as="geometry"/>
                </mxCell>
                <mxCell id="21" value="Jest" style="rounded=0;whiteSpace=wrap;html=1;strokeColor=#000000;strokeWidth=2;fillColor=#ffffff;fontSize=24;fontColor=#000000;align=center;" parent="1" vertex="1">
                    <mxGeometry x="760" y="350" width="180" height="50" as="geometry"/>
                </mxCell>
                <mxCell id="22" value="Automated test runner" style="rounded=0;whiteSpace=wrap;html=1;strokeColor=#000000;strokeWidth=2;fillColor=#ffffff;fontSize=18;fontColor=#000000;align=center;" parent="1" vertex="1">
                    <mxGeometry x="940" y="350" width="240" height="50" as="geometry"/>
                </mxCell>
            </root>
        </mxGraphModel>
    </diagram>
    <diagram id="1d065adb-0cc6-32d4-5815-39d2cbea1c31" name="02 - jest">
        <mxGraphModel dx="799" dy="720" grid="1" gridSize="10" guides="1" tooltips="1" connect="1" arrows="1" fold="1" page="1" pageScale="1" pageWidth="3300" pageHeight="4681" background="#ffffff" math="0" shadow="0">
            <root>
                <mxCell id="0"/>
                <mxCell id="1" parent="0"/>
                <mxCell id="6" value="We run 'npm run test' at the terminal" style="rounded=0;whiteSpace=wrap;html=1;strokeColor=#000000;strokeWidth=2;fillColor=#ffffff;fontSize=18;fontColor=#000000;align=center;" parent="1" vertex="1">
                    <mxGeometry x="520" y="170" width="350" height="60" as="geometry"/>
                </mxCell>
                <mxCell id="7" value="" style="endArrow=classic;html=1;strokeColor=#000000;strokeWidth=3;fontSize=18;fontColor=#000000;" parent="1" edge="1">
                    <mxGeometry width="50" height="50" relative="1" as="geometry">
                        <mxPoint x="500" y="170" as="sourcePoint"/>
                        <mxPoint x="500" y="510" as="targetPoint"/>
                    </mxGeometry>
                </mxCell>
                <mxCell id="8" value="Jest test runner starts up" style="rounded=0;whiteSpace=wrap;html=1;strokeColor=#000000;strokeWidth=2;fillColor=#ffffff;fontSize=18;fontColor=#000000;align=center;" parent="1" vertex="1">
                    <mxGeometry x="520" y="240" width="350" height="60" as="geometry"/>
                </mxCell>
                <mxCell id="9" value="Jest finds all files ending in .test.js and executes tests inside of them" style="rounded=0;whiteSpace=wrap;html=1;strokeColor=#000000;strokeWidth=2;fillColor=#ffffff;fontSize=18;fontColor=#000000;align=center;" parent="1" vertex="1">
                    <mxGeometry x="520" y="310" width="350" height="60" as="geometry"/>
                </mxCell>
                <mxCell id="10" value="Jest prints out results of tests to the terminal" style="rounded=0;whiteSpace=wrap;html=1;strokeColor=#000000;strokeWidth=2;fillColor=#ffffff;fontSize=18;fontColor=#000000;align=center;" parent="1" vertex="1">
                    <mxGeometry x="520" y="380" width="350" height="60" as="geometry"/>
                </mxCell>
                <mxCell id="11" value="Jest waits for a file to change, then runs all tests again" style="rounded=0;whiteSpace=wrap;html=1;strokeColor=#000000;strokeWidth=2;fillColor=#ffffff;fontSize=18;fontColor=#000000;align=center;" parent="1" vertex="1">
                    <mxGeometry x="520" y="450" width="350" height="60" as="geometry"/>
                </mxCell>
                <mxCell id="12" value="Time" style="text;html=1;strokeColor=none;fillColor=none;align=center;verticalAlign=middle;whiteSpace=wrap;rounded=0;fontSize=18;fontColor=#000000;" parent="1" vertex="1">
                    <mxGeometry x="450" y="170" width="40" height="20" as="geometry"/>
                </mxCell>
            </root>
        </mxGraphModel>
    </diagram>
    <diagram id="d85ca5e6-7da4-ab37-5d41-80bae7d39f74" name="03 - app">
        <mxGraphModel dx="799" dy="720" grid="1" gridSize="10" guides="1" tooltips="1" connect="1" arrows="1" fold="1" page="1" pageScale="1" pageWidth="3300" pageHeight="4681" background="#ffffff" math="0" shadow="0">
            <root>
                <mxCell id="0"/>
                <mxCell id="1" parent="0"/>
                <mxCell id="2" value="" style="strokeWidth=1;shadow=0;dashed=0;align=center;html=1;shape=mxgraph.mockup.containers.browserWindow;rSize=0;fillColor=#ffffff;strokeColor=#666666;mainText=,;recursiveResize=0;fontSize=18;fontColor=#000000;" parent="1" vertex="1">
                    <mxGeometry x="480" y="90" width="640" height="420" as="geometry"/>
                </mxCell>
                <mxCell id="3" value="Page 1" style="strokeWidth=1;shadow=0;dashed=0;align=center;html=1;shape=mxgraph.mockup.containers.anchor;fontSize=17;fontColor=#666666;align=left;" parent="2" vertex="1">
                    <mxGeometry x="60" y="12" width="110" height="26" as="geometry"/>
                </mxCell>
                <mxCell id="4" value="https://www.draw.io" style="strokeWidth=1;shadow=0;dashed=0;align=center;html=1;shape=mxgraph.mockup.containers.anchor;rSize=0;fontSize=17;fontColor=#666666;align=left;" parent="2" vertex="1">
                    <mxGeometry x="130" y="60" width="250" height="26" as="geometry"/>
                </mxCell>
                <mxCell id="5" value="Submit" style="rounded=0;whiteSpace=wrap;html=1;strokeColor=#000000;strokeWidth=2;fillColor=#ffffff;fontSize=18;fontColor=#000000;align=center;" parent="2" vertex="1">
                    <mxGeometry x="30" y="234" width="90" height="20" as="geometry"/>
                </mxCell>
                <mxCell id="6" value="" style="rounded=0;whiteSpace=wrap;html=1;strokeColor=#000000;strokeWidth=2;fillColor=#ffffff;fontSize=18;fontColor=#000000;align=center;" parent="2" vertex="1">
                    <mxGeometry x="30" y="144" width="160" height="80" as="geometry"/>
                </mxCell>
                <mxCell id="7" value="&lt;h1 style=&quot;font-size: 12px;&quot;&gt;Here is my comment&lt;/h1&gt;" style="text;html=1;strokeColor=none;fillColor=none;spacing=5;spacingTop=-20;whiteSpace=wrap;overflow=hidden;rounded=0;fontSize=12;fontColor=#000000;align=left;" parent="2" vertex="1">
                    <mxGeometry x="29" y="150" width="190" height="120" as="geometry"/>
                </mxCell>
                <mxCell id="8" value="Enter a Comment" style="text;html=1;strokeColor=none;fillColor=none;align=left;verticalAlign=middle;whiteSpace=wrap;rounded=0;fontSize=18;fontColor=#000000;" parent="2" vertex="1">
                    <mxGeometry x="30" y="117" width="180" height="20" as="geometry"/>
                </mxCell>
                <mxCell id="9" value="I am a test comment!" style="rounded=0;whiteSpace=wrap;html=1;strokeColor=#000000;strokeWidth=2;fillColor=#ffffff;fontSize=18;fontColor=#000000;align=left;" parent="2" vertex="1">
                    <mxGeometry x="30" y="271" width="340" height="40" as="geometry"/>
                </mxCell>
                <mxCell id="10" value="Here's another test comment." style="rounded=0;whiteSpace=wrap;html=1;strokeColor=#000000;strokeWidth=2;fillColor=#ffffff;fontSize=18;fontColor=#000000;align=left;" parent="2" vertex="1">
                    <mxGeometry x="30" y="321" width="340" height="40" as="geometry"/>
                </mxCell>
                <mxCell id="11" value="And yet another comment for testing." style="rounded=0;whiteSpace=wrap;html=1;strokeColor=#000000;strokeWidth=2;fillColor=#ffffff;fontSize=18;fontColor=#000000;align=left;" parent="2" vertex="1">
                    <mxGeometry x="30" y="371" width="340" height="40" as="geometry"/>
                </mxCell>
            </root>
        </mxGraphModel>
    </diagram>
    <diagram name="04 - design" id="fb25d306-b760-4b97-fd08-3752b3768f07">
        <mxGraphModel dx="799" dy="720" grid="1" gridSize="10" guides="1" tooltips="1" connect="1" arrows="1" fold="1" page="1" pageScale="1" pageWidth="3300" pageHeight="4681" background="#ffffff" math="0" shadow="0">
            <root>
                <mxCell id="0"/>
                <mxCell id="1" parent="0"/>
                <mxCell id="2" value="" style="strokeWidth=1;shadow=0;dashed=0;align=center;html=1;shape=mxgraph.mockup.containers.browserWindow;rSize=0;fillColor=#ffffff;strokeColor=#666666;mainText=,;recursiveResize=0;fontSize=18;fontColor=#000000;" parent="1" vertex="1">
                    <mxGeometry x="480" y="90" width="640" height="430" as="geometry"/>
                </mxCell>
                <mxCell id="3" value="Page 1" style="strokeWidth=1;shadow=0;dashed=0;align=center;html=1;shape=mxgraph.mockup.containers.anchor;fontSize=17;fontColor=#666666;align=left;" parent="2" vertex="1">
                    <mxGeometry x="60" y="12" width="110" height="26" as="geometry"/>
                </mxCell>
                <mxCell id="4" value="https://www.draw.io" style="strokeWidth=1;shadow=0;dashed=0;align=center;html=1;shape=mxgraph.mockup.containers.anchor;rSize=0;fontSize=17;fontColor=#666666;align=left;" parent="2" vertex="1">
                    <mxGeometry x="130" y="60" width="250" height="26" as="geometry"/>
                </mxCell>
                <mxCell id="5" value="Submit" style="rounded=0;whiteSpace=wrap;html=1;strokeColor=#000000;strokeWidth=2;fillColor=#ffffff;fontSize=18;fontColor=#000000;align=center;" parent="2" vertex="1">
                    <mxGeometry x="30" y="234" width="90" height="20" as="geometry"/>
                </mxCell>
                <mxCell id="6" value="" style="rounded=0;whiteSpace=wrap;html=1;strokeColor=#000000;strokeWidth=2;fillColor=#ffffff;fontSize=18;fontColor=#000000;align=center;" parent="2" vertex="1">
                    <mxGeometry x="30" y="144" width="160" height="80" as="geometry"/>
                </mxCell>
                <mxCell id="7" value="&lt;h1 style=&quot;font-size: 12px;&quot;&gt;Here is my comment&lt;/h1&gt;" style="text;html=1;strokeColor=none;fillColor=none;spacing=5;spacingTop=-20;whiteSpace=wrap;overflow=hidden;rounded=0;fontSize=12;fontColor=#000000;align=left;" parent="2" vertex="1">
                    <mxGeometry x="29" y="150" width="190" height="120" as="geometry"/>
                </mxCell>
                <mxCell id="8" value="Enter a Comment" style="text;html=1;strokeColor=none;fillColor=none;align=left;verticalAlign=middle;whiteSpace=wrap;rounded=0;fontSize=18;fontColor=#000000;" parent="2" vertex="1">
                    <mxGeometry x="30" y="117" width="180" height="20" as="geometry"/>
                </mxCell>
                <mxCell id="9" value="I am a test comment!" style="rounded=0;whiteSpace=wrap;html=1;strokeColor=#000000;strokeWidth=2;fillColor=#ffffff;fontSize=18;fontColor=#000000;align=left;" parent="2" vertex="1">
                    <mxGeometry x="30" y="271" width="340" height="40" as="geometry"/>
                </mxCell>
                <mxCell id="10" value="Here's another test comment." style="rounded=0;whiteSpace=wrap;html=1;strokeColor=#000000;strokeWidth=2;fillColor=#ffffff;fontSize=18;fontColor=#000000;align=left;" parent="2" vertex="1">
                    <mxGeometry x="30" y="321" width="340" height="40" as="geometry"/>
                </mxCell>
                <mxCell id="11" value="And yet another comment for testing." style="rounded=0;whiteSpace=wrap;html=1;strokeColor=#000000;strokeWidth=2;fillColor=#ffffff;fontSize=18;fontColor=#000000;align=left;" parent="2" vertex="1">
                    <mxGeometry x="30" y="371" width="340" height="40" as="geometry"/>
                </mxCell>
                <mxCell id="12" value="" style="rounded=0;whiteSpace=wrap;html=1;strokeColor=#6c8ebf;strokeWidth=6;fillColor=none;fontSize=18;fontColor=#000000;align=left;" parent="2" vertex="1">
                    <mxGeometry x="4" y="114" width="386" height="316" as="geometry"/>
                </mxCell>
                <mxCell id="14" value="" style="rounded=0;whiteSpace=wrap;html=1;strokeColor=#82b366;strokeWidth=6;fillColor=none;fontSize=18;fontColor=#000000;align=left;" parent="2" vertex="1">
                    <mxGeometry x="23" y="268" width="357" height="143" as="geometry"/>
                </mxCell>
                <mxCell id="13" value="" style="rounded=0;whiteSpace=wrap;html=1;strokeColor=#b85450;strokeWidth=6;fillColor=none;fontSize=18;fontColor=#000000;align=left;" parent="1" vertex="1">
                    <mxGeometry x="506" y="207" width="184" height="143" as="geometry"/>
                </mxCell>
                <mxCell id="16" style="edgeStyle=orthogonalEdgeStyle;rounded=0;html=1;exitX=1;exitY=0.75;entryX=0;entryY=0.25;jettySize=auto;orthogonalLoop=1;strokeColor=#000000;strokeWidth=3;fontSize=18;fontColor=#000000;" parent="1" source="15" target="12" edge="1">
                    <mxGeometry relative="1" as="geometry"/>
                </mxCell>
                <mxCell id="15" value="App Component" style="text;html=1;strokeColor=none;fillColor=none;align=right;verticalAlign=middle;whiteSpace=wrap;rounded=0;fontSize=18;fontColor=#000000;" parent="1" vertex="1">
                    <mxGeometry x="370" y="254" width="40" height="20" as="geometry"/>
                </mxCell>
                <mxCell id="18" style="edgeStyle=orthogonalEdgeStyle;rounded=0;html=1;exitX=1;exitY=0.75;entryX=0;entryY=0.75;jettySize=auto;orthogonalLoop=1;strokeColor=#000000;strokeWidth=3;fontSize=18;fontColor=#000000;" parent="1" source="17" target="13" edge="1">
                    <mxGeometry relative="1" as="geometry"/>
                </mxCell>
                <mxCell id="17" value="CommentBox Component" style="text;html=1;strokeColor=none;fillColor=none;align=right;verticalAlign=middle;whiteSpace=wrap;rounded=0;fontSize=18;fontColor=#000000;" parent="1" vertex="1">
                    <mxGeometry x="370" y="340" width="40" height="20" as="geometry"/>
                </mxCell>
                <mxCell id="20" style="edgeStyle=orthogonalEdgeStyle;rounded=0;html=1;exitX=1;exitY=0.5;entryX=0;entryY=0.5;jettySize=auto;orthogonalLoop=1;strokeColor=#000000;strokeWidth=3;fontSize=18;fontColor=#000000;" parent="1" source="19" target="14" edge="1">
                    <mxGeometry relative="1" as="geometry"/>
                </mxCell>
                <mxCell id="19" value="CommentList Component" style="text;html=1;strokeColor=none;fillColor=none;align=right;verticalAlign=middle;whiteSpace=wrap;rounded=0;fontSize=18;fontColor=#000000;" parent="1" vertex="1">
                    <mxGeometry x="380" y="431" width="40" height="20" as="geometry"/>
                </mxCell>
            </root>
        </mxGraphModel>
    </diagram>
    <diagram id="73f57a77-af3b-5877-35c6-9849a359b212" name="05 - redux design">
        <mxGraphModel dx="799" dy="720" grid="1" gridSize="10" guides="1" tooltips="1" connect="1" arrows="1" fold="1" page="1" pageScale="1" pageWidth="3300" pageHeight="4681" background="#ffffff" math="0" shadow="0">
            <root>
                <mxCell id="0"/>
                <mxCell id="1" parent="0"/>
                <mxCell id="3" value="comments" style="rounded=0;whiteSpace=wrap;html=1;strokeColor=#000000;strokeWidth=2;fillColor=#ffffff;fontSize=18;fontColor=#000000;align=center;fontStyle=1" parent="1" vertex="1">
                    <mxGeometry x="580" y="460" width="160" height="70" as="geometry"/>
                </mxCell>
                <mxCell id="4" value="[ 'Im a comment', 'Another comment' ]" style="rounded=0;whiteSpace=wrap;html=1;strokeColor=#000000;strokeWidth=2;fillColor=#ffffff;fontSize=18;fontColor=#000000;align=center;fontStyle=1" parent="1" vertex="1">
                    <mxGeometry x="740" y="460" width="370" height="70" as="geometry"/>
                </mxCell>
                <mxCell id="5" value="State" style="rounded=0;whiteSpace=wrap;html=1;strokeColor=#82b366;strokeWidth=2;fillColor=#d5e8d4;fontSize=18;fontColor=#000000;align=center;fontStyle=1" parent="1" vertex="1">
                    <mxGeometry x="580" y="430" width="530" height="30" as="geometry"/>
                </mxCell>
                <mxCell id="6" value="Redux Design" style="text;html=1;strokeColor=none;fillColor=none;align=center;verticalAlign=middle;whiteSpace=wrap;rounded=0;fontSize=24;fontColor=#000000;fontStyle=1" parent="1" vertex="1">
                    <mxGeometry x="763" y="375" width="165" height="30" as="geometry"/>
                </mxCell>
                <mxCell id="7" value="saveComment" style="rounded=0;whiteSpace=wrap;html=1;strokeColor=#000000;strokeWidth=2;fillColor=#ffffff;fontSize=18;fontColor=#000000;align=center;fontStyle=1" parent="1" vertex="1">
                    <mxGeometry x="580" y="610" width="160" height="70" as="geometry"/>
                </mxCell>
                <mxCell id="8" value="Adds a comment via the 'comments' reducer" style="rounded=0;whiteSpace=wrap;html=1;strokeColor=#000000;strokeWidth=2;fillColor=#ffffff;fontSize=18;fontColor=#000000;align=center;fontStyle=1" parent="1" vertex="1">
                    <mxGeometry x="740" y="610" width="370" height="70" as="geometry"/>
                </mxCell>
                <mxCell id="9" value="Actions" style="rounded=0;whiteSpace=wrap;html=1;strokeColor=#6c8ebf;strokeWidth=2;fillColor=#dae8fc;fontSize=18;fontColor=#000000;align=center;fontStyle=1" parent="1" vertex="1">
                    <mxGeometry x="580" y="580" width="530" height="30" as="geometry"/>
                </mxCell>
            </root>
        </mxGraphModel>
    </diagram>
    <diagram name="06 - hookup" id="7d852d43-4c5c-f100-ec33-caf38ccec1ef">
        <mxGraphModel dx="799" dy="720" grid="1" gridSize="10" guides="1" tooltips="1" connect="1" arrows="1" fold="1" page="1" pageScale="1" pageWidth="3300" pageHeight="4681" background="#ffffff" math="0" shadow="0">
            <root>
                <mxCell id="0"/>
                <mxCell id="1" parent="0"/>
                <mxCell id="2" value="comments" style="rounded=0;whiteSpace=wrap;html=1;strokeColor=#000000;strokeWidth=2;fillColor=#ffffff;fontSize=18;fontColor=#000000;align=center;fontStyle=1" parent="1" vertex="1">
                    <mxGeometry x="580" y="460" width="160" height="70" as="geometry"/>
                </mxCell>
                <mxCell id="3" value="[ 'Im a comment', 'Another comment' ]" style="rounded=0;whiteSpace=wrap;html=1;strokeColor=#000000;strokeWidth=2;fillColor=#ffffff;fontSize=18;fontColor=#000000;align=center;fontStyle=1" parent="1" vertex="1">
                    <mxGeometry x="740" y="460" width="370" height="70" as="geometry"/>
                </mxCell>
                <mxCell id="4" value="State" style="rounded=0;whiteSpace=wrap;html=1;strokeColor=#82b366;strokeWidth=2;fillColor=#d5e8d4;fontSize=18;fontColor=#000000;align=center;fontStyle=1" parent="1" vertex="1">
                    <mxGeometry x="580" y="430" width="530" height="30" as="geometry"/>
                </mxCell>
                <mxCell id="5" value="Redux Design" style="text;html=1;strokeColor=none;fillColor=none;align=center;verticalAlign=middle;whiteSpace=wrap;rounded=0;fontSize=24;fontColor=#000000;fontStyle=1" parent="1" vertex="1">
                    <mxGeometry x="763" y="375" width="165" height="30" as="geometry"/>
                </mxCell>
                <mxCell id="6" value="saveComment" style="rounded=0;whiteSpace=wrap;html=1;strokeColor=#000000;strokeWidth=2;fillColor=#ffffff;fontSize=18;fontColor=#000000;align=center;fontStyle=1" parent="1" vertex="1">
                    <mxGeometry x="580" y="610" width="160" height="70" as="geometry"/>
                </mxCell>
                <mxCell id="7" value="Adds a comment via the 'comments' reducer" style="rounded=0;whiteSpace=wrap;html=1;strokeColor=#000000;strokeWidth=2;fillColor=#ffffff;fontSize=18;fontColor=#000000;align=center;fontStyle=1" parent="1" vertex="1">
                    <mxGeometry x="740" y="610" width="370" height="70" as="geometry"/>
                </mxCell>
                <mxCell id="8" value="Actions" style="rounded=0;whiteSpace=wrap;html=1;strokeColor=#6c8ebf;strokeWidth=2;fillColor=#dae8fc;fontSize=18;fontColor=#000000;align=center;fontStyle=1" parent="1" vertex="1">
                    <mxGeometry x="580" y="580" width="530" height="30" as="geometry"/>
                </mxCell>
                <mxCell id="9" value="" style="shape=curlyBracket;whiteSpace=wrap;html=1;rounded=1;strokeColor=#000000;strokeWidth=2;fillColor=none;fontSize=24;fontColor=#000000;align=center;" parent="1" vertex="1">
                    <mxGeometry x="530" y="430" width="40" height="100" as="geometry"/>
                </mxCell>
                <mxCell id="10" value="Data needed by CommentList&amp;nbsp;" style="text;html=1;strokeColor=none;fillColor=none;align=right;verticalAlign=middle;whiteSpace=wrap;rounded=0;fontSize=15;fontColor=#000000;" parent="1" vertex="1">
                    <mxGeometry x="400" y="470" width="130" height="20" as="geometry"/>
                </mxCell>
                <mxCell id="11" value="" style="shape=curlyBracket;whiteSpace=wrap;html=1;rounded=1;strokeColor=#000000;strokeWidth=2;fillColor=none;fontSize=24;fontColor=#000000;align=center;" parent="1" vertex="1">
                    <mxGeometry x="530" y="580" width="40" height="100" as="geometry"/>
                </mxCell>
                <mxCell id="12" value="Action needed by CommentBox" style="text;html=1;strokeColor=none;fillColor=none;align=right;verticalAlign=middle;whiteSpace=wrap;rounded=0;fontSize=15;fontColor=#000000;" parent="1" vertex="1">
                    <mxGeometry x="400" y="620" width="130" height="20" as="geometry"/>
                </mxCell>
            </root>
        </mxGraphModel>
    </diagram>
    <diagram id="1071c721-cf51-bf19-708a-d3f74c43e034" name="08 - how to write tests">
        <mxGraphModel dx="799" dy="720" grid="1" gridSize="10" guides="1" tooltips="1" connect="1" arrows="1" fold="1" page="1" pageScale="1" pageWidth="3300" pageHeight="4681" background="#ffffff" math="0" shadow="0">
            <root>
                <mxCell id="0"/>
                <mxCell id="1" parent="0"/>
                <mxCell id="2" value="Look at each individual part of your application" style="rounded=0;whiteSpace=wrap;html=1;strokeColor=#000000;strokeWidth=2;fillColor=#ffffff;fontSize=18;fontColor=#000000;align=center;" parent="1" vertex="1">
                    <mxGeometry x="520" y="170" width="350" height="60" as="geometry"/>
                </mxCell>
                <mxCell id="3" value="" style="endArrow=classic;html=1;strokeColor=#000000;strokeWidth=3;fontSize=18;fontColor=#000000;" parent="1" edge="1">
                    <mxGeometry width="50" height="50" relative="1" as="geometry">
                        <mxPoint x="500" y="170" as="sourcePoint"/>
                        <mxPoint x="500" y="370" as="targetPoint"/>
                    </mxGeometry>
                </mxCell>
                <mxCell id="4" value="Imagine telling a friend 'heres what this piece of code does'" style="rounded=0;whiteSpace=wrap;html=1;strokeColor=#000000;strokeWidth=2;fillColor=#ffffff;fontSize=18;fontColor=#000000;align=center;" parent="1" vertex="1">
                    <mxGeometry x="520" y="240" width="350" height="60" as="geometry"/>
                </mxCell>
                <mxCell id="5" value="Write a test to verify each part does what you expect" style="rounded=0;whiteSpace=wrap;html=1;strokeColor=#000000;strokeWidth=2;fillColor=#ffffff;fontSize=18;fontColor=#000000;align=center;" parent="1" vertex="1">
                    <mxGeometry x="520" y="310" width="350" height="60" as="geometry"/>
                </mxCell>
                <mxCell id="8" value="Time" style="text;html=1;strokeColor=none;fillColor=none;align=center;verticalAlign=middle;whiteSpace=wrap;rounded=0;fontSize=18;fontColor=#000000;" parent="1" vertex="1">
                    <mxGeometry x="450" y="170" width="40" height="20" as="geometry"/>
                </mxCell>
            </root>
        </mxGraphModel>
    </diagram>
    <diagram id="3eab3c93-de28-1316-e590-69bf1b38903d" name="07 - testing">
        <mxGraphModel dx="799" dy="720" grid="1" gridSize="10" guides="1" tooltips="1" connect="1" arrows="1" fold="1" page="1" pageScale="1" pageWidth="3300" pageHeight="4681" background="#ffffff" math="0" shadow="0">
            <root>
                <mxCell id="0"/>
                <mxCell id="1" parent="0"/>
                <mxCell id="2" value="Testing Design - What Do We Care About?" style="text;html=1;strokeColor=none;fillColor=none;align=center;verticalAlign=middle;whiteSpace=wrap;rounded=0;fontSize=24;fontColor=#000000;fontStyle=1" parent="1" vertex="1">
                    <mxGeometry x="505" y="130" width="515" height="30" as="geometry"/>
                </mxCell>
                <mxCell id="3" value="App Component" style="rounded=0;whiteSpace=wrap;html=1;strokeColor=#6c8ebf;strokeWidth=2;fillColor=#dae8fc;fontSize=15;fontColor=#000000;align=center;fontStyle=1" parent="1" vertex="1">
                    <mxGeometry x="410" y="170" width="210" height="40" as="geometry"/>
                </mxCell>
                <mxCell id="4" value="&lt;font style=&quot;font-size: 12px&quot;&gt;Shows the Comment Box inside of it&lt;/font&gt;" style="rounded=0;whiteSpace=wrap;html=1;strokeColor=#000000;strokeWidth=2;fillColor=#ffffff;fontSize=15;fontColor=#000000;align=center;" parent="1" vertex="1">
                    <mxGeometry x="410" y="210" width="210" height="40" as="geometry"/>
                </mxCell>
                <mxCell id="5" value="CommentBox Component" style="rounded=0;whiteSpace=wrap;html=1;strokeColor=#6c8ebf;strokeWidth=2;fillColor=#dae8fc;fontSize=15;fontColor=#000000;align=center;fontStyle=1" parent="1" vertex="1">
                    <mxGeometry x="640" y="170" width="210" height="40" as="geometry"/>
                </mxCell>
                <mxCell id="6" value="CommentList Component" style="rounded=0;whiteSpace=wrap;html=1;strokeColor=#6c8ebf;strokeWidth=2;fillColor=#dae8fc;fontSize=15;fontColor=#000000;align=center;fontStyle=1" parent="1" vertex="1">
                    <mxGeometry x="870" y="170" width="210" height="40" as="geometry"/>
                </mxCell>
                <mxCell id="7" value="&lt;font style=&quot;font-size: 12px&quot;&gt;Shows the Comment List inside of it&lt;/font&gt;" style="rounded=0;whiteSpace=wrap;html=1;strokeColor=#000000;strokeWidth=2;fillColor=#ffffff;fontSize=15;fontColor=#000000;align=center;" parent="1" vertex="1">
                    <mxGeometry x="410" y="250" width="210" height="40" as="geometry"/>
                </mxCell>
                <mxCell id="8" value="&lt;font style=&quot;font-size: 12px&quot;&gt;Shows a text area and a button&lt;/font&gt;" style="rounded=0;whiteSpace=wrap;html=1;strokeColor=#000000;strokeWidth=2;fillColor=#ffffff;fontSize=15;fontColor=#000000;align=center;" parent="1" vertex="1">
                    <mxGeometry x="640" y="210" width="210" height="40" as="geometry"/>
                </mxCell>
                <mxCell id="10" value="&lt;font style=&quot;font-size: 12px&quot;&gt;Users can enter input into the text area&amp;nbsp;&lt;/font&gt;" style="rounded=0;whiteSpace=wrap;html=1;strokeColor=#000000;strokeWidth=2;fillColor=#ffffff;fontSize=15;fontColor=#000000;align=center;" parent="1" vertex="1">
                    <mxGeometry x="640" y="250" width="210" height="40" as="geometry"/>
                </mxCell>
                <mxCell id="11" value="&lt;font style=&quot;font-size: 12px&quot;&gt;When the input is submitted, textarea should get emptied&lt;/font&gt;" style="rounded=0;whiteSpace=wrap;html=1;strokeColor=#000000;strokeWidth=2;fillColor=#ffffff;fontSize=15;fontColor=#000000;align=center;" parent="1" vertex="1">
                    <mxGeometry x="640" y="290" width="210" height="40" as="geometry"/>
                </mxCell>
                <mxCell id="12" value="&lt;font style=&quot;font-size: 12px&quot;&gt;Text from each comment is visible&lt;/font&gt;" style="rounded=0;whiteSpace=wrap;html=1;strokeColor=#000000;strokeWidth=2;fillColor=#ffffff;fontSize=15;fontColor=#000000;align=center;" parent="1" vertex="1">
                    <mxGeometry x="870" y="250" width="210" height="40" as="geometry"/>
                </mxCell>
                <mxCell id="13" value="&lt;font style=&quot;font-size: 12px&quot;&gt;Shows one 'li' element per comment&lt;/font&gt;" style="rounded=0;whiteSpace=wrap;html=1;strokeColor=#000000;strokeWidth=2;fillColor=#ffffff;fontSize=15;fontColor=#000000;align=center;" parent="1" vertex="1">
                    <mxGeometry x="870" y="210" width="210" height="40" as="geometry"/>
                </mxCell>
                <mxCell id="14" value="Comments Reducer" style="rounded=0;whiteSpace=wrap;html=1;strokeColor=#6c8ebf;strokeWidth=2;fillColor=#dae8fc;fontSize=15;fontColor=#000000;align=center;fontStyle=1" parent="1" vertex="1">
                    <mxGeometry x="410" y="350" width="210" height="40" as="geometry"/>
                </mxCell>
                <mxCell id="15" value="&lt;font style=&quot;font-size: 12px&quot;&gt;Properly hands actions with a type of 'SAVE_COMMENT'&lt;/font&gt;" style="rounded=0;whiteSpace=wrap;html=1;strokeColor=#000000;strokeWidth=2;fillColor=#ffffff;fontSize=15;fontColor=#000000;align=center;" parent="1" vertex="1">
                    <mxGeometry x="410" y="390" width="210" height="40" as="geometry"/>
                </mxCell>
                <mxCell id="16" value="&lt;font style=&quot;font-size: 12px&quot;&gt;Doesn't throw an error if it gets an action with any other type&lt;/font&gt;" style="rounded=0;whiteSpace=wrap;html=1;strokeColor=#000000;strokeWidth=2;fillColor=#ffffff;fontSize=15;fontColor=#000000;align=center;" parent="1" vertex="1">
                    <mxGeometry x="410" y="430" width="210" height="40" as="geometry"/>
                </mxCell>
                <mxCell id="17" value="SaveComment Action" style="rounded=0;whiteSpace=wrap;html=1;strokeColor=#6c8ebf;strokeWidth=2;fillColor=#dae8fc;fontSize=15;fontColor=#000000;align=center;fontStyle=1" parent="1" vertex="1">
                    <mxGeometry x="640" y="350" width="210" height="40" as="geometry"/>
                </mxCell>
                <mxCell id="18" value="&lt;font style=&quot;font-size: 12px&quot;&gt;Has a type of 'SAVE_COMMENT'&lt;/font&gt;" style="rounded=0;whiteSpace=wrap;html=1;strokeColor=#000000;strokeWidth=2;fillColor=#ffffff;fontSize=15;fontColor=#000000;align=center;" parent="1" vertex="1">
                    <mxGeometry x="640" y="390" width="210" height="40" as="geometry"/>
                </mxCell>
                <mxCell id="19" value="&lt;font style=&quot;font-size: 12px&quot;&gt;Produces an action that has a payload of the new comment's text&lt;/font&gt;" style="rounded=0;whiteSpace=wrap;html=1;strokeColor=#000000;strokeWidth=2;fillColor=#ffffff;fontSize=15;fontColor=#000000;align=center;" parent="1" vertex="1">
                    <mxGeometry x="640" y="430" width="210" height="40" as="geometry"/>
                </mxCell>
            </root>
        </mxGraphModel>
    </diagram>
    <diagram id="fe9e8ce3-e326-be71-5b67-9e4d833ab378" name="09 - it block">
        <mxGraphModel dx="799" dy="720" grid="1" gridSize="10" guides="1" tooltips="1" connect="1" arrows="1" fold="1" page="1" pageScale="1" pageWidth="3300" pageHeight="4681" background="#ffffff" math="0" shadow="0">
            <root>
                <mxCell id="0"/>
                <mxCell id="1" parent="0"/>
                <mxCell id="2" value="it" style="rounded=0;whiteSpace=wrap;html=1;strokeColor=#6c8ebf;strokeWidth=2;fillColor=#dae8fc;fontSize=24;fontColor=#000000;align=center;fontStyle=1" parent="1" vertex="1">
                    <mxGeometry x="370" y="200" width="120" height="60" as="geometry"/>
                </mxCell>
                <mxCell id="3" value="(" style="rounded=0;whiteSpace=wrap;html=1;strokeColor=#6c8ebf;strokeWidth=2;fillColor=#dae8fc;fontSize=24;fontColor=#000000;align=center;fontStyle=1" parent="1" vertex="1">
                    <mxGeometry x="490" y="200" width="50" height="60" as="geometry"/>
                </mxCell>
                <mxCell id="4" value="description of the test" style="rounded=0;whiteSpace=wrap;html=1;strokeColor=#000000;strokeWidth=2;fillColor=#ffffff;fontSize=18;fontColor=#000000;align=center;fontStyle=2" parent="1" vertex="1">
                    <mxGeometry x="540" y="200" width="250" height="60" as="geometry"/>
                </mxCell>
                <mxCell id="6" value="," style="rounded=0;whiteSpace=wrap;html=1;strokeColor=#6c8ebf;strokeWidth=2;fillColor=#dae8fc;fontSize=24;fontColor=#000000;align=center;fontStyle=1" parent="1" vertex="1">
                    <mxGeometry x="790" y="200" width="30" height="60" as="geometry"/>
                </mxCell>
                <mxCell id="7" value="function containing our test logic" style="rounded=0;whiteSpace=wrap;html=1;strokeColor=#000000;strokeWidth=2;fillColor=#ffffff;fontSize=18;fontColor=#000000;align=center;fontStyle=2" parent="1" vertex="1">
                    <mxGeometry x="820" y="200" width="210" height="60" as="geometry"/>
                </mxCell>
                <mxCell id="8" value=")" style="rounded=0;whiteSpace=wrap;html=1;strokeColor=#6c8ebf;strokeWidth=2;fillColor=#dae8fc;fontSize=24;fontColor=#000000;align=center;fontStyle=1" parent="1" vertex="1">
                    <mxGeometry x="1030" y="200" width="50" height="60" as="geometry"/>
                </mxCell>
                <mxCell id="9" value="" style="shape=curlyBracket;whiteSpace=wrap;html=1;rounded=1;strokeColor=#000000;strokeWidth=2;fillColor=none;fontSize=18;fontColor=#000000;align=center;rotation=90;" parent="1" vertex="1">
                    <mxGeometry x="405" y="105" width="50" height="120" as="geometry"/>
                </mxCell>
                <mxCell id="10" value="Global function" style="text;html=1;strokeColor=none;fillColor=none;align=center;verticalAlign=middle;whiteSpace=wrap;rounded=0;fontSize=18;fontColor=#000000;" parent="1" vertex="1">
                    <mxGeometry x="410" y="110" width="40" height="20" as="geometry"/>
                </mxCell>
                <mxCell id="11" value="" style="shape=curlyBracket;whiteSpace=wrap;html=1;rounded=1;strokeColor=#000000;strokeWidth=2;fillColor=none;fontSize=18;fontColor=#000000;align=center;rotation=-90;" parent="1" vertex="1">
                    <mxGeometry x="640" y="165" width="50" height="250" as="geometry"/>
                </mxCell>
                <mxCell id="12" value="String description of the test we're running" style="text;html=1;strokeColor=none;fillColor=none;align=center;verticalAlign=middle;whiteSpace=wrap;rounded=0;fontSize=18;fontColor=#000000;" parent="1" vertex="1">
                    <mxGeometry x="572.5" y="304" width="185" height="60" as="geometry"/>
                </mxCell>
                <mxCell id="13" value="" style="shape=curlyBracket;whiteSpace=wrap;html=1;rounded=1;strokeColor=#000000;strokeWidth=2;fillColor=none;fontSize=18;fontColor=#000000;align=center;rotation=90;" parent="1" vertex="1">
                    <mxGeometry x="903" y="63" width="45" height="210" as="geometry"/>
                </mxCell>
                <mxCell id="14" value="Stuff to do when this test runs" style="text;html=1;strokeColor=none;fillColor=none;align=center;verticalAlign=middle;whiteSpace=wrap;rounded=0;fontSize=18;fontColor=#000000;" parent="1" vertex="1">
                    <mxGeometry x="842.5" y="116" width="165" height="20" as="geometry"/>
                </mxCell>
            </root>
        </mxGraphModel>
    </diagram>
    <diagram id="0ac54fc7-47b8-d743-1923-3d7e0f9796d3" name="10 - expect">
        <mxGraphModel dx="799" dy="720" grid="1" gridSize="10" guides="1" tooltips="1" connect="1" arrows="1" fold="1" page="1" pageScale="1" pageWidth="3300" pageHeight="4681" background="#ffffff" math="0" shadow="0">
            <root>
                <mxCell id="0"/>
                <mxCell id="1" parent="0"/>
                <mxCell id="2" value="expect" style="rounded=0;whiteSpace=wrap;html=1;strokeColor=#6c8ebf;strokeWidth=2;fillColor=#dae8fc;fontSize=24;fontColor=#000000;align=center;fontStyle=1" parent="1" vertex="1">
                    <mxGeometry x="440" y="200" width="120" height="60" as="geometry"/>
                </mxCell>
                <mxCell id="3" value="(" style="rounded=0;whiteSpace=wrap;html=1;strokeColor=#6c8ebf;strokeWidth=2;fillColor=#dae8fc;fontSize=24;fontColor=#000000;align=center;fontStyle=1" parent="1" vertex="1">
                    <mxGeometry x="560" y="200" width="50" height="60" as="geometry"/>
                </mxCell>
                <mxCell id="4" value="value that we are inspecting" style="rounded=0;whiteSpace=wrap;html=1;strokeColor=#000000;strokeWidth=2;fillColor=#ffffff;fontSize=18;fontColor=#000000;align=center;fontStyle=2" parent="1" vertex="1">
                    <mxGeometry x="610" y="200" width="180" height="60" as="geometry"/>
                </mxCell>
                <mxCell id="6" value="matcher statement" style="rounded=0;whiteSpace=wrap;html=1;strokeColor=#000000;strokeWidth=2;fillColor=#ffffff;fontSize=18;fontColor=#000000;align=center;fontStyle=2" parent="1" vertex="1">
                    <mxGeometry x="840" y="200" width="170" height="60" as="geometry"/>
                </mxCell>
                <mxCell id="7" value=")." style="rounded=0;whiteSpace=wrap;html=1;strokeColor=#6c8ebf;strokeWidth=2;fillColor=#dae8fc;fontSize=24;fontColor=#000000;align=center;fontStyle=1" parent="1" vertex="1">
                    <mxGeometry x="790" y="200" width="50" height="60" as="geometry"/>
                </mxCell>
                <mxCell id="8" value="(" style="rounded=0;whiteSpace=wrap;html=1;strokeColor=#6c8ebf;strokeWidth=2;fillColor=#dae8fc;fontSize=24;fontColor=#000000;align=center;fontStyle=1" parent="1" vertex="1">
                    <mxGeometry x="1010" y="200" width="50" height="60" as="geometry"/>
                </mxCell>
                <mxCell id="9" value=");" style="rounded=0;whiteSpace=wrap;html=1;strokeColor=#6c8ebf;strokeWidth=2;fillColor=#dae8fc;fontSize=24;fontColor=#000000;align=center;fontStyle=1" parent="1" vertex="1">
                    <mxGeometry x="1230" y="200" width="50" height="60" as="geometry"/>
                </mxCell>
                <mxCell id="10" value="value that we expect to see" style="rounded=0;whiteSpace=wrap;html=1;strokeColor=#000000;strokeWidth=2;fillColor=#ffffff;fontSize=18;fontColor=#000000;align=center;fontStyle=2" parent="1" vertex="1">
                    <mxGeometry x="1060" y="200" width="170" height="60" as="geometry"/>
                </mxCell>
                <mxCell id="11" value="" style="shape=curlyBracket;whiteSpace=wrap;html=1;rounded=1;strokeColor=#000000;strokeWidth=2;fillColor=none;fontSize=18;fontColor=#000000;align=center;rotation=90;" parent="1" vertex="1">
                    <mxGeometry x="480" y="110" width="40" height="120" as="geometry"/>
                </mxCell>
                <mxCell id="12" value="Global function" style="text;html=1;strokeColor=none;fillColor=none;align=center;verticalAlign=middle;whiteSpace=wrap;rounded=0;fontSize=18;fontColor=#000000;" parent="1" vertex="1">
                    <mxGeometry x="480" y="119" width="40" height="20" as="geometry"/>
                </mxCell>
                <mxCell id="13" value="" style="shape=curlyBracket;whiteSpace=wrap;html=1;rounded=1;strokeColor=#000000;strokeWidth=2;fillColor=none;fontSize=18;fontColor=#000000;align=center;rotation=-90;" parent="1" vertex="1">
                    <mxGeometry x="680" y="200" width="40" height="180" as="geometry"/>
                </mxCell>
                <mxCell id="14" value="The thing we want to verify" style="text;html=1;strokeColor=none;fillColor=none;align=center;verticalAlign=middle;whiteSpace=wrap;rounded=0;fontSize=18;fontColor=#000000;" parent="1" vertex="1">
                    <mxGeometry x="630" y="310" width="140" height="40" as="geometry"/>
                </mxCell>
                <mxCell id="15" value="" style="shape=curlyBracket;whiteSpace=wrap;html=1;rounded=1;strokeColor=#000000;strokeWidth=2;fillColor=none;fontSize=18;fontColor=#000000;align=center;rotation=90;" parent="1" vertex="1">
                    <mxGeometry x="905" y="85" width="40" height="170" as="geometry"/>
                </mxCell>
                <mxCell id="16" value="Designates how we want to inspect the 'subject'" style="text;html=1;strokeColor=none;fillColor=none;align=center;verticalAlign=middle;whiteSpace=wrap;rounded=0;fontSize=18;fontColor=#000000;" parent="1" vertex="1">
                    <mxGeometry x="830" y="99" width="190" height="40" as="geometry"/>
                </mxCell>
                <mxCell id="17" value="" style="shape=curlyBracket;whiteSpace=wrap;html=1;rounded=1;strokeColor=#000000;strokeWidth=2;fillColor=none;fontSize=18;fontColor=#000000;align=center;rotation=-90;" parent="1" vertex="1">
                    <mxGeometry x="1125" y="205" width="40" height="170" as="geometry"/>
                </mxCell>
                <mxCell id="18" value="Expected value, its what we &lt;i&gt;want&lt;/i&gt;&amp;nbsp;our 'subject' to be" style="text;html=1;strokeColor=none;fillColor=none;align=center;verticalAlign=middle;whiteSpace=wrap;rounded=0;fontSize=18;fontColor=#000000;" parent="1" vertex="1">
                    <mxGeometry x="1050" y="320" width="190" height="40" as="geometry"/>
                </mxCell>
            </root>
        </mxGraphModel>
    </diagram>
    <diagram id="38ecd390-8eae-57a9-a3fb-72e972448790" name="11 - jsdom">
        <mxGraphModel dx="799" dy="720" grid="1" gridSize="10" guides="1" tooltips="1" connect="1" arrows="1" fold="1" page="1" pageScale="1" pageWidth="3300" pageHeight="4681" background="#ffffff" math="0" shadow="0">
            <root>
                <mxCell id="0"/>
                <mxCell id="1" parent="0"/>
                <mxCell id="2" value="Command Line Environment&lt;br&gt;&lt;br&gt;&lt;br&gt;&lt;br&gt;&lt;br&gt;&lt;br&gt;&lt;br&gt;&lt;br&gt;&lt;br&gt;&lt;br&gt;&lt;br&gt;" style="rounded=0;whiteSpace=wrap;html=1;strokeColor=#6c8ebf;strokeWidth=2;fillColor=#dae8fc;fontSize=18;fontColor=#000000;align=center;fontStyle=1" parent="1" vertex="1">
                    <mxGeometry x="500" y="130" width="340" height="260" as="geometry"/>
                </mxCell>
                <mxCell id="4" value="Jest&lt;br&gt;&lt;br&gt;&lt;br&gt;&lt;br&gt;&lt;br&gt;&lt;br&gt;" style="rounded=0;whiteSpace=wrap;html=1;strokeColor=#82b366;strokeWidth=2;fillColor=#d5e8d4;fontSize=18;fontColor=#000000;align=center;fontStyle=1" parent="1" vertex="1">
                    <mxGeometry x="550" y="200" width="240" height="150" as="geometry"/>
                </mxCell>
                <mxCell id="5" value="JSDOM" style="rounded=0;whiteSpace=wrap;html=1;strokeColor=#000000;strokeWidth=2;fillColor=#ffffff;fontSize=18;fontColor=#000000;align=center;fontStyle=1" parent="1" vertex="1">
                    <mxGeometry x="610" y="270" width="120" height="60" as="geometry"/>
                </mxCell>
                <mxCell id="7" style="edgeStyle=orthogonalEdgeStyle;rounded=0;html=1;exitX=0;exitY=0.5;entryX=1;entryY=0.5;jettySize=auto;orthogonalLoop=1;strokeColor=#000000;strokeWidth=3;fontSize=18;fontColor=#000000;" parent="1" source="6" target="5" edge="1">
                    <mxGeometry relative="1" as="geometry"/>
                </mxCell>
                <mxCell id="6" value="Simulates how a browser behaves" style="text;html=1;strokeColor=none;fillColor=none;align=left;verticalAlign=middle;whiteSpace=wrap;rounded=0;fontSize=18;fontColor=#000000;" parent="1" vertex="1">
                    <mxGeometry x="860" y="275" width="170" height="50" as="geometry"/>
                </mxCell>
            </root>
        </mxGraphModel>
    </diagram>
    <diagram id="a54da015-fc56-e750-edce-0b8635f68ea7" name="12 - jsdom in practice">
        <mxGraphModel dx="799" dy="720" grid="1" gridSize="10" guides="1" tooltips="1" connect="1" arrows="1" fold="1" page="1" pageScale="1" pageWidth="3300" pageHeight="4681" background="#ffffff" math="0" shadow="0">
            <root>
                <mxCell id="0"/>
                <mxCell id="1" parent="0"/>
                <mxCell id="4" value="JSDOM&lt;br&gt;&lt;br&gt;&lt;br&gt;&lt;br&gt;&lt;br&gt;&lt;br&gt;&lt;br&gt;" style="rounded=0;whiteSpace=wrap;html=1;strokeColor=#6c8ebf;strokeWidth=2;fillColor=#dae8fc;fontSize=18;fontColor=#000000;align=center;fontStyle=1" parent="1" vertex="1">
                    <mxGeometry x="550" y="160" width="350" height="220" as="geometry"/>
                </mxCell>
                <mxCell id="7" value="div" style="rounded=0;whiteSpace=wrap;html=1;strokeColor=#000000;strokeWidth=2;fillColor=#ffffff;fontSize=18;fontColor=#000000;align=center;fontStyle=1" parent="1" vertex="1">
                    <mxGeometry x="660" y="270" width="120" height="60" as="geometry"/>
                </mxCell>
                <mxCell id="8" value="Instance of App Component" style="rounded=0;whiteSpace=wrap;html=1;strokeColor=#000000;strokeWidth=2;fillColor=#ffffff;fontSize=18;fontColor=#000000;align=center;" parent="1" vertex="1">
                    <mxGeometry x="340" y="190" width="180" height="80" as="geometry"/>
                </mxCell>
                <mxCell id="10" style="edgeStyle=orthogonalEdgeStyle;rounded=0;html=1;exitX=1;exitY=0.5;entryX=0;entryY=0.5;jettySize=auto;orthogonalLoop=1;strokeColor=#000000;strokeWidth=3;fontSize=13;fontColor=#000000;" parent="1" source="9" target="7" edge="1">
                    <mxGeometry relative="1" as="geometry"/>
                </mxCell>
                <mxCell id="9" value="HTML produced by App" style="rounded=0;whiteSpace=wrap;html=1;strokeColor=#82b366;strokeWidth=2;fillColor=#d5e8d4;fontSize=13;fontColor=#000000;align=center;" parent="1" vertex="1">
                    <mxGeometry x="400" y="270" width="120" height="60" as="geometry"/>
                </mxCell>
            </root>
        </mxGraphModel>
    </diagram>
    <diagram id="00e37567-43f6-51c9-4ed1-eec1fec59f87" name="13 - silo">
        <mxGraphModel dx="799" dy="720" grid="1" gridSize="10" guides="1" tooltips="1" connect="1" arrows="1" fold="1" page="1" pageScale="1" pageWidth="3300" pageHeight="4681" background="#ffffff" math="0" shadow="0">
            <root>
                <mxCell id="0"/>
                <mxCell id="1" parent="0"/>
                <mxCell id="2" value="App&lt;br&gt;&lt;br&gt;&lt;br&gt;&lt;br&gt;&lt;br&gt;" style="rounded=0;whiteSpace=wrap;html=1;strokeColor=#6c8ebf;strokeWidth=2;fillColor=#dae8fc;fontSize=18;fontColor=#000000;align=center;fontStyle=1" parent="1" vertex="1">
                    <mxGeometry x="810" y="520" width="180" height="120" as="geometry"/>
                </mxCell>
                <mxCell id="14" style="edgeStyle=orthogonalEdgeStyle;rounded=0;html=1;exitX=1;exitY=0.25;entryX=0;entryY=0.25;jettySize=auto;orthogonalLoop=1;strokeColor=#000000;strokeWidth=3;fontSize=18;fontColor=#000000;" parent="1" source="3" target="10" edge="1">
                    <mxGeometry relative="1" as="geometry"/>
                </mxCell>
                <mxCell id="15" value="&lt;font color=&quot;#97d077&quot;&gt;OK&lt;/font&gt;" style="text;html=1;resizable=0;points=[];align=center;verticalAlign=middle;labelBackgroundColor=#ffffff;fontSize=18;fontColor=#000000;" parent="14" vertex="1" connectable="0">
                    <mxGeometry x="-0.024" relative="1" as="geometry">
                        <mxPoint as="offset"/>
                    </mxGeometry>
                </mxCell>
                <mxCell id="3" value="App.test.js" style="rounded=0;whiteSpace=wrap;html=1;strokeColor=#000000;strokeWidth=2;fillColor=#ffffff;fontSize=18;fontColor=#000000;align=center;" parent="1" vertex="1">
                    <mxGeometry x="810" y="640" width="180" height="50" as="geometry"/>
                </mxCell>
                <mxCell id="6" value="App's secret internal workings" style="rounded=0;whiteSpace=wrap;html=1;strokeColor=#000000;strokeWidth=2;fillColor=#ffffff;fontSize=18;fontColor=#000000;align=center;" parent="1" vertex="1">
                    <mxGeometry x="825" y="566" width="150" height="60" as="geometry"/>
                </mxCell>
                <mxCell id="7" value="CommentBox&lt;br&gt;&lt;br&gt;&lt;br&gt;&lt;br&gt;&lt;br&gt;" style="rounded=0;whiteSpace=wrap;html=1;strokeColor=#82b366;strokeWidth=2;fillColor=#d5e8d4;fontSize=18;fontColor=#000000;align=center;fontStyle=1" parent="1" vertex="1">
                    <mxGeometry x="1120" y="610" width="180" height="120" as="geometry"/>
                </mxCell>
                <mxCell id="8" value="CommentBox.test.js" style="rounded=0;whiteSpace=wrap;html=1;strokeColor=#000000;strokeWidth=2;fillColor=#ffffff;fontSize=18;fontColor=#000000;align=center;" parent="1" vertex="1">
                    <mxGeometry x="1120" y="730" width="180" height="50" as="geometry"/>
                </mxCell>
                <mxCell id="9" value="CB's secret internal workings" style="rounded=0;whiteSpace=wrap;html=1;strokeColor=#000000;strokeWidth=2;fillColor=#ffffff;fontSize=18;fontColor=#000000;align=center;" parent="1" vertex="1">
                    <mxGeometry x="1135" y="656" width="150" height="60" as="geometry"/>
                </mxCell>
                <mxCell id="10" value="CommentList&lt;br&gt;&lt;br&gt;&lt;br&gt;&lt;br&gt;&lt;br&gt;" style="rounded=0;whiteSpace=wrap;html=1;strokeColor=#9673a6;strokeWidth=2;fillColor=#e1d5e7;fontSize=18;fontColor=#000000;align=center;fontStyle=1" parent="1" vertex="1">
                    <mxGeometry x="1120" y="420" width="180" height="120" as="geometry"/>
                </mxCell>
                <mxCell id="11" value="CommentList.test.js" style="rounded=0;whiteSpace=wrap;html=1;strokeColor=#000000;strokeWidth=2;fillColor=#ffffff;fontSize=18;fontColor=#000000;align=center;" parent="1" vertex="1">
                    <mxGeometry x="1120" y="540" width="180" height="50" as="geometry"/>
                </mxCell>
                <mxCell id="12" value="CL's secret internal workings" style="rounded=0;whiteSpace=wrap;html=1;strokeColor=#000000;strokeWidth=2;fillColor=#ffffff;fontSize=18;fontColor=#000000;align=center;" parent="1" vertex="1">
                    <mxGeometry x="1135" y="466" width="150" height="60" as="geometry"/>
                </mxCell>
                <mxCell id="16" style="edgeStyle=orthogonalEdgeStyle;rounded=0;html=1;exitX=1;exitY=0.75;entryX=-0.011;entryY=0.305;jettySize=auto;orthogonalLoop=1;strokeColor=#000000;strokeWidth=3;fontSize=18;fontColor=#000000;entryPerimeter=0;" parent="1" source="3" target="7" edge="1">
                    <mxGeometry relative="1" as="geometry"/>
                </mxCell>
                <mxCell id="17" value="&lt;font color=&quot;#ff0000&quot;&gt;NO&lt;/font&gt;" style="text;html=1;resizable=0;points=[];align=center;verticalAlign=middle;labelBackgroundColor=#ffffff;fontSize=18;fontColor=#000000;" parent="16" vertex="1" connectable="0">
                    <mxGeometry x="0.0833" y="2" relative="1" as="geometry">
                        <mxPoint as="offset"/>
                    </mxGeometry>
                </mxCell>
            </root>
        </mxGraphModel>
    </diagram>
    <diagram id="43e5e218-826c-3543-f98a-eaf40e7dd7e7" name="14 - load paths">
        <mxGraphModel dx="1238" dy="539" grid="1" gridSize="10" guides="1" tooltips="1" connect="1" arrows="1" fold="1" page="1" pageScale="1" pageWidth="3300" pageHeight="4681" background="#ffffff" math="0" shadow="0">
            <root>
                <mxCell id="0"/>
                <mxCell id="1" parent="0"/>
                <mxCell id="5" value="/components" style="rounded=0;whiteSpace=wrap;html=1;strokeColor=#000000;strokeWidth=2;fillColor=#ffffff;fontSize=18;fontColor=#000000;align=center;" vertex="1" parent="1">
                    <mxGeometry x="690" y="190" width="260" height="60" as="geometry"/>
                </mxCell>
                <mxCell id="6" value="App.js" style="rounded=0;whiteSpace=wrap;html=1;strokeColor=#000000;strokeWidth=2;fillColor=#ffffff;fontSize=18;fontColor=#000000;align=center;" vertex="1" parent="1">
                    <mxGeometry x="740" y="490" width="210" height="60" as="geometry"/>
                </mxCell>
                <mxCell id="7" value="App.js" style="rounded=0;whiteSpace=wrap;html=1;strokeColor=#82b366;strokeWidth=2;fillColor=#d5e8d4;fontSize=18;fontColor=#000000;align=center;" vertex="1" parent="1">
                    <mxGeometry x="790" y="310" width="160" height="60" as="geometry"/>
                </mxCell>
                <mxCell id="8" value="/__tests__" style="rounded=0;whiteSpace=wrap;html=1;strokeColor=#000000;strokeWidth=2;fillColor=#ffffff;fontSize=18;fontColor=#000000;align=center;" vertex="1" parent="1">
                    <mxGeometry x="740" y="250" width="210" height="60" as="geometry"/>
                </mxCell>
                <mxCell id="10" value="App.test.js" style="rounded=0;whiteSpace=wrap;html=1;strokeColor=#82b366;strokeWidth=2;fillColor=#d5e8d4;fontSize=18;fontColor=#000000;align=center;" vertex="1" parent="1">
                    <mxGeometry x="790" y="370" width="160" height="60" as="geometry"/>
                </mxCell>
                <mxCell id="11" value="App.spec.js" style="rounded=0;whiteSpace=wrap;html=1;strokeColor=#82b366;strokeWidth=2;fillColor=#d5e8d4;fontSize=18;fontColor=#000000;align=center;" vertex="1" parent="1">
                    <mxGeometry x="790" y="430" width="160" height="60" as="geometry"/>
                </mxCell>
                <mxCell id="12" value="App.spec.js" style="rounded=0;whiteSpace=wrap;html=1;strokeColor=#82b366;strokeWidth=2;fillColor=#d5e8d4;fontSize=18;fontColor=#000000;align=center;" vertex="1" parent="1">
                    <mxGeometry x="740" y="550" width="210" height="60" as="geometry"/>
                </mxCell>
                <mxCell id="13" value="App.test.js" style="rounded=0;whiteSpace=wrap;html=1;strokeColor=#82b366;strokeWidth=2;fillColor=#d5e8d4;fontSize=18;fontColor=#000000;align=center;" vertex="1" parent="1">
                    <mxGeometry x="740" y="610" width="210" height="60" as="geometry"/>
                </mxCell>
                <mxCell id="14" value="" style="shape=curlyBracket;whiteSpace=wrap;html=1;rounded=1;strokeColor=#000000;strokeWidth=2;fillColor=none;fontSize=18;fontColor=#000000;align=center;rotation=180;" vertex="1" parent="1">
                    <mxGeometry x="960" y="310" width="40" height="180" as="geometry"/>
                </mxCell>
                <mxCell id="15" value="Jest will load these" style="text;html=1;strokeColor=none;fillColor=none;align=left;verticalAlign=middle;whiteSpace=wrap;rounded=0;fontSize=18;fontColor=#000000;" vertex="1" parent="1">
                    <mxGeometry x="1000" y="390" width="110" height="20" as="geometry"/>
                </mxCell>
                <mxCell id="16" value="" style="shape=curlyBracket;whiteSpace=wrap;html=1;rounded=1;strokeColor=#000000;strokeWidth=2;fillColor=none;fontSize=18;fontColor=#000000;align=center;rotation=180;" vertex="1" parent="1">
                    <mxGeometry x="960" y="550" width="40" height="120" as="geometry"/>
                </mxCell>
                <mxCell id="17" value="Jest will load these" style="text;html=1;strokeColor=none;fillColor=none;align=left;verticalAlign=middle;whiteSpace=wrap;rounded=0;fontSize=18;fontColor=#000000;" vertex="1" parent="1">
                    <mxGeometry x="1000" y="600" width="110" height="20" as="geometry"/>
                </mxCell>
            </root>
        </mxGraphModel>
    </diagram>
    <diagram id="69f89b72-d727-f756-03e5-55cb24e9535a" name="15 - enzyme">
        <mxGraphModel dx="825" dy="359" grid="1" gridSize="10" guides="1" tooltips="1" connect="1" arrows="1" fold="1" page="1" pageScale="1" pageWidth="3300" pageHeight="4681" background="#ffffff" math="0" shadow="0">
            <root>
                <mxCell id="0"/>
                <mxCell id="1" parent="0"/>
                <mxCell id="6" style="edgeStyle=orthogonalEdgeStyle;rounded=0;html=1;exitX=0.5;exitY=1;jettySize=auto;orthogonalLoop=1;strokeColor=#000000;strokeWidth=3;fontSize=18;fontColor=#000000;" edge="1" parent="1" source="2" target="4">
                    <mxGeometry relative="1" as="geometry"/>
                </mxCell>
                <mxCell id="7" style="edgeStyle=orthogonalEdgeStyle;rounded=0;html=1;exitX=0.25;exitY=1;jettySize=auto;orthogonalLoop=1;strokeColor=#000000;strokeWidth=3;fontSize=18;fontColor=#000000;" edge="1" parent="1" source="2" target="3">
                    <mxGeometry relative="1" as="geometry"/>
                </mxCell>
                <mxCell id="8" style="edgeStyle=orthogonalEdgeStyle;rounded=0;html=1;exitX=0.75;exitY=1;jettySize=auto;orthogonalLoop=1;strokeColor=#000000;strokeWidth=3;fontSize=18;fontColor=#000000;" edge="1" parent="1" source="2" target="5">
                    <mxGeometry relative="1" as="geometry"/>
                </mxCell>
                <mxCell id="2" value="Enzyme API" style="rounded=0;whiteSpace=wrap;html=1;strokeColor=#000000;strokeWidth=2;fillColor=#ffffff;fontSize=18;fontColor=#000000;align=center;fontStyle=1" vertex="1" parent="1">
                    <mxGeometry x="600" y="120" width="120" height="60" as="geometry"/>
                </mxCell>
                <mxCell id="3" value="Static" style="rounded=0;whiteSpace=wrap;html=1;strokeColor=#000000;strokeWidth=2;fillColor=#ffffff;fontSize=18;fontColor=#000000;align=center;fontStyle=1" vertex="1" parent="1">
                    <mxGeometry x="390" y="230" width="120" height="60" as="geometry"/>
                </mxCell>
                <mxCell id="4" value="Shallow" style="rounded=0;whiteSpace=wrap;html=1;strokeColor=#000000;strokeWidth=2;fillColor=#ffffff;fontSize=18;fontColor=#000000;align=center;fontStyle=1" vertex="1" parent="1">
                    <mxGeometry x="600" y="230" width="120" height="60" as="geometry"/>
                </mxCell>
                <mxCell id="5" value="Full DOM" style="rounded=0;whiteSpace=wrap;html=1;strokeColor=#000000;strokeWidth=2;fillColor=#ffffff;fontSize=18;fontColor=#000000;align=center;fontStyle=1" vertex="1" parent="1">
                    <mxGeometry x="820" y="230" width="120" height="60" as="geometry"/>
                </mxCell>
                <mxCell id="9" value="&lt;i&gt;Render the given component and return plain HTML&lt;/i&gt;" style="text;html=1;strokeColor=none;fillColor=none;align=center;verticalAlign=middle;whiteSpace=wrap;rounded=0;fontSize=18;fontColor=#000000;" vertex="1" parent="1">
                    <mxGeometry x="380" y="290" width="140" height="90" as="geometry"/>
                </mxCell>
                <mxCell id="10" value="&lt;i&gt;Render *just* the given component and none of its children&lt;/i&gt;" style="text;html=1;strokeColor=none;fillColor=none;align=center;verticalAlign=middle;whiteSpace=wrap;rounded=0;fontSize=18;fontColor=#000000;" vertex="1" parent="1">
                    <mxGeometry x="590" y="290" width="140" height="90" as="geometry"/>
                </mxCell>
                <mxCell id="11" value="&lt;i&gt;Render the component and all of its children + let us modify it afterwards&lt;/i&gt;" style="text;html=1;strokeColor=none;fillColor=none;align=center;verticalAlign=middle;whiteSpace=wrap;rounded=0;fontSize=18;fontColor=#000000;" vertex="1" parent="1">
                    <mxGeometry x="790" y="290" width="180" height="90" as="geometry"/>
                </mxCell>
            </root>
        </mxGraphModel>
    </diagram>
    <diagram id="caaf4027-b787-43f5-9166-a29fa0ed073c" name="16 - change flow">
        <mxGraphModel dx="825" dy="359" grid="1" gridSize="10" guides="1" tooltips="1" connect="1" arrows="1" fold="1" page="1" pageScale="1" pageWidth="3300" pageHeight="4681" background="#ffffff" math="0" shadow="0">
            <root>
                <mxCell id="0"/>
                <mxCell id="1" parent="0"/>
                <mxCell id="2" value="Find the textarea element" style="rounded=0;whiteSpace=wrap;html=1;strokeColor=#000000;strokeWidth=2;fillColor=#ffffff;fontSize=18;fontColor=#000000;align=center;" vertex="1" parent="1">
                    <mxGeometry x="590" y="230" width="270" height="50" as="geometry"/>
                </mxCell>
                <mxCell id="3" value="" style="endArrow=classic;html=1;strokeColor=#000000;strokeWidth=3;fontSize=18;fontColor=#000000;" edge="1" parent="1">
                    <mxGeometry width="50" height="50" relative="1" as="geometry">
                        <mxPoint x="570" y="230" as="sourcePoint"/>
                        <mxPoint x="570" y="520" as="targetPoint"/>
                    </mxGeometry>
                </mxCell>
                <mxCell id="4" value="Time" style="text;html=1;strokeColor=none;fillColor=none;align=center;verticalAlign=middle;whiteSpace=wrap;rounded=0;fontSize=18;fontColor=#000000;" vertex="1" parent="1">
                    <mxGeometry x="520" y="230" width="40" height="20" as="geometry"/>
                </mxCell>
                <mxCell id="5" value="Simulate a 'change' event" style="rounded=0;whiteSpace=wrap;html=1;strokeColor=#000000;strokeWidth=2;fillColor=#ffffff;fontSize=18;fontColor=#000000;align=center;" vertex="1" parent="1">
                    <mxGeometry x="590" y="290" width="270" height="50" as="geometry"/>
                </mxCell>
                <mxCell id="6" value="Provide a fake event object" style="rounded=0;whiteSpace=wrap;html=1;strokeColor=#000000;strokeWidth=2;fillColor=#ffffff;fontSize=18;fontColor=#000000;align=center;" vertex="1" parent="1">
                    <mxGeometry x="590" y="350" width="270" height="50" as="geometry"/>
                </mxCell>
                <mxCell id="7" value="Force the component to update" style="rounded=0;whiteSpace=wrap;html=1;strokeColor=#000000;strokeWidth=2;fillColor=#ffffff;fontSize=18;fontColor=#000000;align=center;" vertex="1" parent="1">
                    <mxGeometry x="590" y="410" width="270" height="50" as="geometry"/>
                </mxCell>
                <mxCell id="8" value="Assert that the textareas value has changed" style="rounded=0;whiteSpace=wrap;html=1;strokeColor=#000000;strokeWidth=2;fillColor=#ffffff;fontSize=18;fontColor=#000000;align=center;" vertex="1" parent="1">
                    <mxGeometry x="590" y="470" width="270" height="50" as="geometry"/>
                </mxCell>
                <mxCell id="9" value="Simulating Events" style="text;html=1;strokeColor=none;fillColor=none;align=center;verticalAlign=middle;whiteSpace=wrap;rounded=0;fontSize=18;fontColor=#000000;fontStyle=1" vertex="1" parent="1">
                    <mxGeometry x="620" y="200" width="210" height="20" as="geometry"/>
                </mxCell>
            </root>
        </mxGraphModel>
    </diagram>
    <diagram id="a7aed407-ae9d-242a-b73c-7e94312f09e0" name="17 - async">
        <mxGraphModel dx="825" dy="359" grid="1" gridSize="10" guides="1" tooltips="1" connect="1" arrows="1" fold="1" page="1" pageScale="1" pageWidth="3300" pageHeight="4681" background="#ffffff" math="0" shadow="0">
            <root>
                <mxCell id="0"/>
                <mxCell id="1" parent="0"/>
                <mxCell id="2" value="Find the textarea element" style="rounded=0;whiteSpace=wrap;html=1;strokeColor=#000000;strokeWidth=2;fillColor=#ffffff;fontSize=18;fontColor=#000000;align=center;" vertex="1" parent="1">
                    <mxGeometry x="590" y="230" width="270" height="50" as="geometry"/>
                </mxCell>
                <mxCell id="3" value="" style="endArrow=classic;html=1;strokeColor=#000000;strokeWidth=3;fontSize=18;fontColor=#000000;" edge="1" parent="1">
                    <mxGeometry width="50" height="50" relative="1" as="geometry">
                        <mxPoint x="570" y="230" as="sourcePoint"/>
                        <mxPoint x="570" y="520" as="targetPoint"/>
                    </mxGeometry>
                </mxCell>
                <mxCell id="4" value="Time" style="text;html=1;strokeColor=none;fillColor=none;align=center;verticalAlign=middle;whiteSpace=wrap;rounded=0;fontSize=18;fontColor=#000000;" vertex="1" parent="1">
                    <mxGeometry x="520" y="230" width="40" height="20" as="geometry"/>
                </mxCell>
                <mxCell id="5" value="Simulate a 'change' event" style="rounded=0;whiteSpace=wrap;html=1;strokeColor=#000000;strokeWidth=2;fillColor=#ffffff;fontSize=18;fontColor=#000000;align=center;" vertex="1" parent="1">
                    <mxGeometry x="590" y="290" width="270" height="50" as="geometry"/>
                </mxCell>
                <mxCell id="6" value="Provide a fake event object" style="rounded=0;whiteSpace=wrap;html=1;strokeColor=#000000;strokeWidth=2;fillColor=#ffffff;fontSize=18;fontColor=#000000;align=center;" vertex="1" parent="1">
                    <mxGeometry x="590" y="350" width="270" height="50" as="geometry"/>
                </mxCell>
                <mxCell id="7" value="Force the component to update" style="rounded=0;whiteSpace=wrap;html=1;strokeColor=#000000;strokeWidth=2;fillColor=#ffffff;fontSize=18;fontColor=#000000;align=center;" vertex="1" parent="1">
                    <mxGeometry x="590" y="410" width="270" height="50" as="geometry"/>
                </mxCell>
                <mxCell id="8" value="Assert that the textareas value has changed" style="rounded=0;whiteSpace=wrap;html=1;strokeColor=#000000;strokeWidth=2;fillColor=#ffffff;fontSize=18;fontColor=#000000;align=center;" vertex="1" parent="1">
                    <mxGeometry x="590" y="470" width="270" height="50" as="geometry"/>
                </mxCell>
                <mxCell id="9" value="Simulating Events" style="text;html=1;strokeColor=none;fillColor=none;align=center;verticalAlign=middle;whiteSpace=wrap;rounded=0;fontSize=18;fontColor=#000000;fontStyle=1" vertex="1" parent="1">
                    <mxGeometry x="620" y="200" width="210" height="20" as="geometry"/>
                </mxCell>
                <mxCell id="10" value="" style="shape=curlyBracket;whiteSpace=wrap;html=1;rounded=1;strokeColor=#000000;strokeWidth=2;fillColor=none;fontSize=18;fontColor=#000000;align=center;rotation=180;" vertex="1" parent="1">
                    <mxGeometry x="870" y="290" width="30" height="110" as="geometry"/>
                </mxCell>
                <mxCell id="11" value="Calls setState to update value" style="text;html=1;strokeColor=none;fillColor=none;align=left;verticalAlign=middle;whiteSpace=wrap;rounded=0;fontSize=18;fontColor=#000000;fontStyle=2" vertex="1" parent="1">
                    <mxGeometry x="900" y="335" width="150" height="20" as="geometry"/>
                </mxCell>
            </root>
        </mxGraphModel>
    </diagram>
    <diagram id="fb075302-edcb-33f9-4b3c-8037d58203d7" name="18 - order">
        <mxGraphModel dx="990" dy="431" grid="1" gridSize="10" guides="1" tooltips="1" connect="1" arrows="1" fold="1" page="1" pageScale="1" pageWidth="3300" pageHeight="4681" background="#ffffff" math="0" shadow="0">
            <root>
                <mxCell id="0"/>
                <mxCell id="1" parent="0"/>
                <mxCell id="2" value="beforeEach #1" style="rounded=0;whiteSpace=wrap;html=1;strokeColor=#82b366;strokeWidth=2;fillColor=#d5e8d4;fontSize=18;fontColor=#000000;align=center;" vertex="1" parent="1">
                    <mxGeometry x="500" y="190" width="260" height="60" as="geometry"/>
                </mxCell>
                <mxCell id="3" value="it('has a text area and button')" style="rounded=0;whiteSpace=wrap;html=1;strokeColor=#000000;strokeWidth=2;fillColor=#ffffff;fontSize=18;fontColor=#000000;align=center;" vertex="1" parent="1">
                    <mxGeometry x="500" y="310" width="260" height="60" as="geometry"/>
                </mxCell>
                <mxCell id="4" value="describe('the text area')" style="rounded=0;whiteSpace=wrap;html=1;strokeColor=#000000;strokeWidth=2;fillColor=#ffffff;fontSize=18;fontColor=#000000;align=center;" vertex="1" parent="1">
                    <mxGeometry x="500" y="370" width="260" height="60" as="geometry"/>
                </mxCell>
                <mxCell id="5" value="beforeEach #2" style="rounded=0;whiteSpace=wrap;html=1;strokeColor=#6c8ebf;strokeWidth=2;fillColor=#dae8fc;fontSize=18;fontColor=#000000;align=center;" vertex="1" parent="1">
                    <mxGeometry x="550" y="430" width="210" height="60" as="geometry"/>
                </mxCell>
                <mxCell id="6" value="it('allows users to edit it')" style="rounded=0;whiteSpace=wrap;html=1;strokeColor=#000000;strokeWidth=2;fillColor=#ffffff;fontSize=18;fontColor=#000000;align=center;" vertex="1" parent="1">
                    <mxGeometry x="550" y="490" width="210" height="60" as="geometry"/>
                </mxCell>
                <mxCell id="7" value="it('gets reset on form submit')" style="rounded=0;whiteSpace=wrap;html=1;strokeColor=#000000;strokeWidth=2;fillColor=#ffffff;fontSize=18;fontColor=#000000;align=center;" vertex="1" parent="1">
                    <mxGeometry x="550" y="550" width="210" height="60" as="geometry"/>
                </mxCell>
                <mxCell id="10" style="edgeStyle=orthogonalEdgeStyle;rounded=0;html=1;exitX=0.5;exitY=1;jettySize=auto;orthogonalLoop=1;strokeColor=#000000;strokeWidth=3;fontSize=18;fontColor=#000000;" edge="1" parent="1" source="8" target="9">
                    <mxGeometry relative="1" as="geometry"/>
                </mxCell>
                <mxCell id="8" value="beforeEach #1" style="rounded=0;whiteSpace=wrap;html=1;strokeColor=#82b366;strokeWidth=2;fillColor=#d5e8d4;fontSize=18;fontColor=#000000;align=center;" vertex="1" parent="1">
                    <mxGeometry x="1140" y="190" width="260" height="60" as="geometry"/>
                </mxCell>
                <mxCell id="13" style="edgeStyle=orthogonalEdgeStyle;rounded=0;html=1;exitX=0.5;exitY=1;jettySize=auto;orthogonalLoop=1;strokeColor=#000000;strokeWidth=3;fontSize=18;fontColor=#000000;" edge="1" parent="1" source="9" target="12">
                    <mxGeometry relative="1" as="geometry"/>
                </mxCell>
                <mxCell id="9" value="it('has a text area and button')" style="rounded=0;whiteSpace=wrap;html=1;strokeColor=#000000;strokeWidth=2;fillColor=#ffffff;fontSize=18;fontColor=#000000;align=center;" vertex="1" parent="1">
                    <mxGeometry x="1140" y="290" width="260" height="60" as="geometry"/>
                </mxCell>
                <mxCell id="11" value="afterEach #1" style="rounded=0;whiteSpace=wrap;html=1;strokeColor=#9673a6;strokeWidth=2;fillColor=#e1d5e7;fontSize=18;fontColor=#000000;align=center;" vertex="1" parent="1">
                    <mxGeometry x="500" y="250" width="260" height="60" as="geometry"/>
                </mxCell>
                <mxCell id="12" value="afterEach #1" style="rounded=0;whiteSpace=wrap;html=1;strokeColor=#9673a6;strokeWidth=2;fillColor=#e1d5e7;fontSize=18;fontColor=#000000;align=center;" vertex="1" parent="1">
                    <mxGeometry x="1140" y="400" width="260" height="60" as="geometry"/>
                </mxCell>
                <mxCell id="18" style="edgeStyle=orthogonalEdgeStyle;rounded=0;html=1;exitX=0.5;exitY=1;jettySize=auto;orthogonalLoop=1;strokeColor=#000000;strokeWidth=3;fontSize=18;fontColor=#000000;" edge="1" parent="1" source="14" target="15">
                    <mxGeometry relative="1" as="geometry"/>
                </mxCell>
                <mxCell id="14" value="beforeEach #1" style="rounded=0;whiteSpace=wrap;html=1;strokeColor=#82b366;strokeWidth=2;fillColor=#d5e8d4;fontSize=18;fontColor=#000000;align=center;" vertex="1" parent="1">
                    <mxGeometry x="1440" y="190" width="260" height="60" as="geometry"/>
                </mxCell>
                <mxCell id="19" style="edgeStyle=orthogonalEdgeStyle;rounded=0;html=1;exitX=0.5;exitY=1;jettySize=auto;orthogonalLoop=1;strokeColor=#000000;strokeWidth=3;fontSize=18;fontColor=#000000;" edge="1" parent="1" source="15" target="16">
                    <mxGeometry relative="1" as="geometry"/>
                </mxCell>
                <mxCell id="15" value="beforeEach #2" style="rounded=0;whiteSpace=wrap;html=1;strokeColor=#6c8ebf;strokeWidth=2;fillColor=#dae8fc;fontSize=18;fontColor=#000000;align=center;" vertex="1" parent="1">
                    <mxGeometry x="1440" y="290" width="260" height="60" as="geometry"/>
                </mxCell>
                <mxCell id="20" style="edgeStyle=orthogonalEdgeStyle;rounded=0;html=1;exitX=0.5;exitY=1;jettySize=auto;orthogonalLoop=1;strokeColor=#000000;strokeWidth=3;fontSize=18;fontColor=#000000;" edge="1" parent="1" source="16" target="17">
                    <mxGeometry relative="1" as="geometry"/>
                </mxCell>
                <mxCell id="16" value="it('allows users to edit it')" style="rounded=0;whiteSpace=wrap;html=1;strokeColor=#000000;strokeWidth=2;fillColor=#ffffff;fontSize=18;fontColor=#000000;align=center;" vertex="1" parent="1">
                    <mxGeometry x="1440" y="400" width="260" height="60" as="geometry"/>
                </mxCell>
                <mxCell id="17" value="afterEach #1" style="rounded=0;whiteSpace=wrap;html=1;strokeColor=#9673a6;strokeWidth=2;fillColor=#e1d5e7;fontSize=18;fontColor=#000000;align=center;" vertex="1" parent="1">
                    <mxGeometry x="1440" y="510" width="260" height="60" as="geometry"/>
                </mxCell>
                <mxCell id="21" style="edgeStyle=orthogonalEdgeStyle;rounded=0;html=1;exitX=0.5;exitY=1;jettySize=auto;orthogonalLoop=1;strokeColor=#000000;strokeWidth=3;fontSize=18;fontColor=#000000;" edge="1" source="22" target="24" parent="1">
                    <mxGeometry relative="1" as="geometry"/>
                </mxCell>
                <mxCell id="22" value="beforeEach #1" style="rounded=0;whiteSpace=wrap;html=1;strokeColor=#82b366;strokeWidth=2;fillColor=#d5e8d4;fontSize=18;fontColor=#000000;align=center;" vertex="1" parent="1">
                    <mxGeometry x="1760" y="190" width="260" height="60" as="geometry"/>
                </mxCell>
                <mxCell id="23" style="edgeStyle=orthogonalEdgeStyle;rounded=0;html=1;exitX=0.5;exitY=1;jettySize=auto;orthogonalLoop=1;strokeColor=#000000;strokeWidth=3;fontSize=18;fontColor=#000000;" edge="1" source="24" parent="1">
                    <mxGeometry relative="1" as="geometry">
                        <mxPoint x="1890" y="400" as="targetPoint"/>
                    </mxGeometry>
                </mxCell>
                <mxCell id="24" value="beforeEach #2" style="rounded=0;whiteSpace=wrap;html=1;strokeColor=#6c8ebf;strokeWidth=2;fillColor=#dae8fc;fontSize=18;fontColor=#000000;align=center;" vertex="1" parent="1">
                    <mxGeometry x="1760" y="290" width="260" height="60" as="geometry"/>
                </mxCell>
                <mxCell id="25" style="edgeStyle=orthogonalEdgeStyle;rounded=0;html=1;exitX=0.5;exitY=1;jettySize=auto;orthogonalLoop=1;strokeColor=#000000;strokeWidth=3;fontSize=18;fontColor=#000000;" edge="1" target="27" parent="1">
                    <mxGeometry relative="1" as="geometry">
                        <mxPoint x="1890" y="460" as="sourcePoint"/>
                    </mxGeometry>
                </mxCell>
                <mxCell id="27" value="afterEach #1" style="rounded=0;whiteSpace=wrap;html=1;strokeColor=#9673a6;strokeWidth=2;fillColor=#e1d5e7;fontSize=18;fontColor=#000000;align=center;" vertex="1" parent="1">
                    <mxGeometry x="1760" y="510" width="260" height="60" as="geometry"/>
                </mxCell>
                <mxCell id="28" value="it('gets reset on form submit')" style="rounded=0;whiteSpace=wrap;html=1;strokeColor=#000000;strokeWidth=2;fillColor=#ffffff;fontSize=18;fontColor=#000000;align=center;" vertex="1" parent="1">
                    <mxGeometry x="1760" y="400" width="260" height="60" as="geometry"/>
                </mxCell>
            </root>
        </mxGraphModel>
    </diagram>
    <diagram id="2fe8b435-0704-04de-67bf-965016974daf" name="19 - conenct">
        <mxGraphModel dx="990" dy="431" grid="1" gridSize="10" guides="1" tooltips="1" connect="1" arrows="1" fold="1" page="1" pageScale="1" pageWidth="3300" pageHeight="4681" background="#ffffff" math="0" shadow="0">
            <root>
                <mxCell id="0"/>
                <mxCell id="1" parent="0"/>
                <mxCell id="4" style="edgeStyle=orthogonalEdgeStyle;rounded=0;html=1;exitX=0.5;exitY=1;jettySize=auto;orthogonalLoop=1;strokeColor=#000000;strokeWidth=3;fontSize=18;fontColor=#000000;" edge="1" parent="1" source="2" target="3">
                    <mxGeometry relative="1" as="geometry"/>
                </mxCell>
                <mxCell id="2" value="Provider&lt;br&gt;&lt;br&gt;&lt;br&gt;&lt;br&gt;" style="rounded=0;whiteSpace=wrap;html=1;strokeColor=#6c8ebf;strokeWidth=2;fillColor=#dae8fc;fontSize=18;fontColor=#000000;align=center;" vertex="1" parent="1">
                    <mxGeometry x="540" y="90" width="210" height="90" as="geometry"/>
                </mxCell>
                <mxCell id="12" style="edgeStyle=orthogonalEdgeStyle;rounded=0;html=1;exitX=0.25;exitY=1;entryX=0.5;entryY=0;jettySize=auto;orthogonalLoop=1;strokeColor=#000000;strokeWidth=3;fontSize=18;fontColor=#000000;" edge="1" parent="1" source="3" target="11">
                    <mxGeometry relative="1" as="geometry"/>
                </mxCell>
                <mxCell id="13" style="edgeStyle=orthogonalEdgeStyle;rounded=0;html=1;exitX=0.75;exitY=1;entryX=0.5;entryY=0;jettySize=auto;orthogonalLoop=1;strokeColor=#000000;strokeWidth=3;fontSize=18;fontColor=#000000;" edge="1" parent="1" source="3" target="10">
                    <mxGeometry relative="1" as="geometry"/>
                </mxCell>
                <mxCell id="3" value="App" style="rounded=0;whiteSpace=wrap;html=1;strokeColor=#000000;strokeWidth=2;fillColor=#ffffff;fontSize=18;fontColor=#000000;align=center;" vertex="1" parent="1">
                    <mxGeometry x="540" y="230" width="210" height="60" as="geometry"/>
                </mxCell>
                <mxCell id="5" value="CommentsList" style="rounded=0;whiteSpace=wrap;html=1;strokeColor=#000000;strokeWidth=2;fillColor=#ffffff;fontSize=18;fontColor=#000000;align=center;" vertex="1" parent="1">
                    <mxGeometry x="680" y="400" width="210" height="60" as="geometry"/>
                </mxCell>
                <mxCell id="6" value="CommentBox" style="rounded=0;whiteSpace=wrap;html=1;strokeColor=#000000;strokeWidth=2;fillColor=#ffffff;fontSize=18;fontColor=#000000;align=center;" vertex="1" parent="1">
                    <mxGeometry x="400" y="400" width="210" height="60" as="geometry"/>
                </mxCell>
                <mxCell id="9" value="Redux Store" style="rounded=0;whiteSpace=wrap;html=1;strokeColor=#000000;strokeWidth=2;fillColor=#ffffff;fontSize=18;fontColor=#000000;align=center;" vertex="1" parent="1">
                    <mxGeometry x="575" y="130" width="140" height="40" as="geometry"/>
                </mxCell>
                <mxCell id="15" style="edgeStyle=orthogonalEdgeStyle;rounded=0;html=1;exitX=0.75;exitY=0;entryX=1;entryY=0.75;jettySize=auto;orthogonalLoop=1;strokeColor=#000000;strokeWidth=3;fontSize=18;fontColor=#000000;" edge="1" parent="1" source="10" target="2">
                    <mxGeometry relative="1" as="geometry"/>
                </mxCell>
                <mxCell id="10" value="connect" style="rounded=0;whiteSpace=wrap;html=1;strokeColor=#000000;strokeWidth=2;fillColor=#ffffff;fontSize=18;fontColor=#000000;align=center;" vertex="1" parent="1">
                    <mxGeometry x="715" y="360" width="140" height="40" as="geometry"/>
                </mxCell>
                <mxCell id="14" style="edgeStyle=orthogonalEdgeStyle;rounded=0;html=1;exitX=0.25;exitY=0;entryX=0;entryY=0.75;jettySize=auto;orthogonalLoop=1;strokeColor=#000000;strokeWidth=3;fontSize=18;fontColor=#000000;" edge="1" parent="1" source="11" target="2">
                    <mxGeometry relative="1" as="geometry"/>
                </mxCell>
                <mxCell id="11" value="connect" style="rounded=0;whiteSpace=wrap;html=1;strokeColor=#000000;strokeWidth=2;fillColor=#ffffff;fontSize=18;fontColor=#000000;align=center;" vertex="1" parent="1">
                    <mxGeometry x="435" y="360" width="140" height="40" as="geometry"/>
                </mxCell>
            </root>
        </mxGraphModel>
    </diagram>
    <diagram id="b48fb813-a0e3-dc6d-3e4f-e73d0ac9f2e4" name="20 - workaround">
        <mxGraphModel dx="990" dy="431" grid="1" gridSize="10" guides="1" tooltips="1" connect="1" arrows="1" fold="1" page="1" pageScale="1" pageWidth="3300" pageHeight="4681" background="#ffffff" math="0" shadow="0">
            <root>
                <mxCell id="0"/>
                <mxCell id="1" parent="0"/>
                <mxCell id="2" value="CommentBox.test.js" style="rounded=0;whiteSpace=wrap;html=1;strokeColor=#000000;strokeWidth=2;fillColor=#ffffff;fontSize=18;fontColor=#000000;align=center;" vertex="1" parent="1">
                    <mxGeometry x="530" y="220" width="190" height="200" as="geometry"/>
                </mxCell>
                <mxCell id="5" style="edgeStyle=orthogonalEdgeStyle;rounded=0;html=1;exitX=0;exitY=0.5;entryX=1;entryY=0.5;jettySize=auto;orthogonalLoop=1;strokeColor=#000000;strokeWidth=3;fontSize=18;fontColor=#000000;" edge="1" parent="1" source="3" target="2">
                    <mxGeometry relative="1" as="geometry"/>
                </mxCell>
                <mxCell id="3" value="CommentBox.js" style="rounded=0;whiteSpace=wrap;html=1;strokeColor=#000000;strokeWidth=2;fillColor=#ffffff;fontSize=18;fontColor=#000000;align=center;" vertex="1" parent="1">
                    <mxGeometry x="800" y="220" width="190" height="200" as="geometry"/>
                </mxCell>
                <mxCell id="6" style="edgeStyle=orthogonalEdgeStyle;rounded=0;html=1;exitX=1;exitY=0.5;jettySize=auto;orthogonalLoop=1;strokeColor=#000000;strokeWidth=3;fontSize=18;fontColor=#000000;" edge="1" parent="1" source="4" target="2">
                    <mxGeometry relative="1" as="geometry"/>
                </mxCell>
                <mxCell id="4" value="src/Root.js" style="rounded=0;whiteSpace=wrap;html=1;strokeColor=#000000;strokeWidth=2;fillColor=#ffffff;fontSize=18;fontColor=#000000;align=center;" vertex="1" parent="1">
                    <mxGeometry x="260" y="220" width="190" height="200" as="geometry"/>
                </mxCell>
            </root>
        </mxGraphModel>
    </diagram>
    <diagram id="1161da45-f636-dcfe-be48-0a110b13ce5c" name="21 - fetch comments">
        <mxGraphModel dx="990" dy="431" grid="1" gridSize="10" guides="1" tooltips="1" connect="1" arrows="1" fold="1" page="1" pageScale="1" pageWidth="3300" pageHeight="4681" background="#ffffff" math="0" shadow="0">
            <root>
                <mxCell id="0"/>
                <mxCell id="1" parent="0"/>
                <mxCell id="2" value="" style="strokeWidth=1;shadow=0;dashed=0;align=center;html=1;shape=mxgraph.mockup.containers.browserWindow;rSize=0;fillColor=#ffffff;strokeColor=#666666;mainText=,;recursiveResize=0;fontSize=18;fontColor=#000000;" vertex="1" parent="1">
                    <mxGeometry x="480" y="90" width="640" height="420" as="geometry"/>
                </mxCell>
                <mxCell id="3" value="Page 1" style="strokeWidth=1;shadow=0;dashed=0;align=center;html=1;shape=mxgraph.mockup.containers.anchor;fontSize=17;fontColor=#666666;align=left;" vertex="1" parent="2">
                    <mxGeometry x="60" y="12" width="110" height="26" as="geometry"/>
                </mxCell>
                <mxCell id="4" value="https://www.draw.io" style="strokeWidth=1;shadow=0;dashed=0;align=center;html=1;shape=mxgraph.mockup.containers.anchor;rSize=0;fontSize=17;fontColor=#666666;align=left;" vertex="1" parent="2">
                    <mxGeometry x="130" y="60" width="250" height="26" as="geometry"/>
                </mxCell>
                <mxCell id="5" value="Submit" style="rounded=0;whiteSpace=wrap;html=1;strokeColor=#000000;strokeWidth=2;fillColor=#ffffff;fontSize=18;fontColor=#000000;align=center;" vertex="1" parent="2">
                    <mxGeometry x="30" y="234" width="90" height="20" as="geometry"/>
                </mxCell>
                <mxCell id="6" value="" style="rounded=0;whiteSpace=wrap;html=1;strokeColor=#000000;strokeWidth=2;fillColor=#ffffff;fontSize=18;fontColor=#000000;align=center;" vertex="1" parent="2">
                    <mxGeometry x="30" y="144" width="160" height="80" as="geometry"/>
                </mxCell>
                <mxCell id="7" value="&lt;h1 style=&quot;font-size: 12px;&quot;&gt;Here is my comment&lt;/h1&gt;" style="text;html=1;strokeColor=none;fillColor=none;spacing=5;spacingTop=-20;whiteSpace=wrap;overflow=hidden;rounded=0;fontSize=12;fontColor=#000000;align=left;" vertex="1" parent="2">
                    <mxGeometry x="29" y="150" width="191" height="60" as="geometry"/>
                </mxCell>
                <mxCell id="8" value="Enter a Comment" style="text;html=1;strokeColor=none;fillColor=none;align=left;verticalAlign=middle;whiteSpace=wrap;rounded=0;fontSize=18;fontColor=#000000;" vertex="1" parent="2">
                    <mxGeometry x="30" y="117" width="180" height="20" as="geometry"/>
                </mxCell>
                <mxCell id="9" value="I am a test comment!" style="rounded=0;whiteSpace=wrap;html=1;strokeColor=#000000;strokeWidth=2;fillColor=#ffffff;fontSize=18;fontColor=#000000;align=left;" vertex="1" parent="2">
                    <mxGeometry x="30" y="271" width="340" height="40" as="geometry"/>
                </mxCell>
                <mxCell id="10" value="Here's another test comment." style="rounded=0;whiteSpace=wrap;html=1;strokeColor=#000000;strokeWidth=2;fillColor=#ffffff;fontSize=18;fontColor=#000000;align=left;" vertex="1" parent="2">
                    <mxGeometry x="30" y="321" width="340" height="40" as="geometry"/>
                </mxCell>
                <mxCell id="11" value="And yet another comment for testing." style="rounded=0;whiteSpace=wrap;html=1;strokeColor=#000000;strokeWidth=2;fillColor=#ffffff;fontSize=18;fontColor=#000000;align=left;" vertex="1" parent="2">
                    <mxGeometry x="30" y="371" width="340" height="40" as="geometry"/>
                </mxCell>
                <mxCell id="12" value="Fetch Comments" style="rounded=0;whiteSpace=wrap;html=1;strokeColor=#000000;strokeWidth=2;fillColor=#ffffff;fontSize=18;fontColor=#000000;align=center;" vertex="1" parent="2">
                    <mxGeometry x="125" y="234" width="155" height="20" as="geometry"/>
                </mxCell>
            </root>
        </mxGraphModel>
    </diagram>
    <diagram id="46bcb8ff-54f2-94b7-5fc5-12c844d2ad8b" name="22 - unit">
        <mxGraphModel dx="619" dy="270" grid="1" gridSize="10" guides="1" tooltips="1" connect="1" arrows="1" fold="1" page="1" pageScale="1" pageWidth="3300" pageHeight="4681" background="#ffffff" math="0" shadow="0">
            <root>
                <mxCell id="0"/>
                <mxCell id="1" parent="0"/>
                <mxCell id="2" value="" style="endArrow=classic;startArrow=classic;html=1;strokeColor=#000000;strokeWidth=3;fontSize=18;fontColor=#000000;" edge="1" parent="1">
                    <mxGeometry width="50" height="50" relative="1" as="geometry">
                        <mxPoint x="560" y="280" as="sourcePoint"/>
                        <mxPoint x="900" y="280" as="targetPoint"/>
                    </mxGeometry>
                </mxCell>
                <mxCell id="3" value="Few Parts" style="text;html=1;strokeColor=none;fillColor=none;align=center;verticalAlign=middle;whiteSpace=wrap;rounded=0;fontSize=18;fontColor=#000000;" vertex="1" parent="1">
                    <mxGeometry x="550" y="300" width="40" height="20" as="geometry"/>
                </mxCell>
                <mxCell id="4" value="Many Parts" style="text;html=1;strokeColor=none;fillColor=none;align=center;verticalAlign=middle;whiteSpace=wrap;rounded=0;fontSize=18;fontColor=#000000;" vertex="1" parent="1">
                    <mxGeometry x="870" y="300" width="40" height="20" as="geometry"/>
                </mxCell>
                <mxCell id="5" value="Does the action creator return an object?" style="rounded=0;whiteSpace=wrap;html=1;strokeColor=#000000;strokeWidth=2;fillColor=#ffffff;fontSize=12;fontColor=#000000;align=center;" vertex="1" parent="1">
                    <mxGeometry x="481" y="220" width="170" height="48" as="geometry"/>
                </mxCell>
                <mxCell id="6" value="Does the CommentList produce a list of 'LI' elements?" style="rounded=0;whiteSpace=wrap;html=1;strokeColor=#000000;strokeWidth=2;fillColor=#ffffff;fontSize=12;fontColor=#000000;align=center;" vertex="1" parent="1">
                    <mxGeometry x="481" y="172" width="170" height="48" as="geometry"/>
                </mxCell>
                <mxCell id="7" value="Does the CommentBox show a button?" style="rounded=0;whiteSpace=wrap;html=1;strokeColor=#000000;strokeWidth=2;fillColor=#ffffff;fontSize=12;fontColor=#000000;align=center;" vertex="1" parent="1">
                    <mxGeometry x="481" y="124" width="170" height="48" as="geometry"/>
                </mxCell>
                <mxCell id="8" value="Does clicking 'Fetch Comments' show a list of 'LI's?" style="rounded=0;whiteSpace=wrap;html=1;strokeColor=#000000;strokeWidth=2;fillColor=#ffffff;fontSize=12;fontColor=#000000;align=center;" vertex="1" parent="1">
                    <mxGeometry x="805" y="220" width="170" height="48" as="geometry"/>
                </mxCell>
                <mxCell id="9" value="Number of pieces of our app touched in a single test" style="text;html=1;strokeColor=none;fillColor=none;align=center;verticalAlign=middle;whiteSpace=wrap;rounded=0;fontSize=11;fontColor=#000000;fontStyle=2" vertex="1" parent="1">
                    <mxGeometry x="651" y="290" width="170" height="40" as="geometry"/>
                </mxCell>
                <mxCell id="10" value="Unit Tests" style="text;html=1;strokeColor=none;fillColor=none;align=center;verticalAlign=middle;whiteSpace=wrap;rounded=0;fontSize=18;fontColor=#000000;fontStyle=2" vertex="1" parent="1">
                    <mxGeometry x="516" y="100" width="100" height="20" as="geometry"/>
                </mxCell>
                <mxCell id="11" value="Integration Test" style="text;html=1;strokeColor=none;fillColor=none;align=center;verticalAlign=middle;whiteSpace=wrap;rounded=0;fontSize=18;fontColor=#000000;fontStyle=2" vertex="1" parent="1">
                    <mxGeometry x="820" y="196" width="140" height="20" as="geometry"/>
                </mxCell>
            </root>
        </mxGraphModel>
    </diagram>
    <diagram id="0ac00614-7c98-56c1-109a-8c98ea44f49f" name="24 - fail test">
        <mxGraphModel dx="825" dy="359" grid="1" gridSize="10" guides="1" tooltips="1" connect="1" arrows="1" fold="1" page="1" pageScale="1" pageWidth="3300" pageHeight="4681" background="#ffffff" math="0" shadow="0">
            <root>
                <mxCell id="0"/>
                <mxCell id="1" parent="0"/>
                <mxCell id="2" value="Simulate click event on the button element" style="rounded=0;whiteSpace=wrap;html=1;strokeColor=#000000;strokeWidth=2;fillColor=#ffffff;fontSize=18;fontColor=#000000;align=center;" vertex="1" parent="1">
                    <mxGeometry x="460" y="160" width="300" height="60" as="geometry"/>
                </mxCell>
                <mxCell id="3" value="" style="endArrow=classic;html=1;strokeColor=#000000;strokeWidth=3;fontSize=18;fontColor=#000000;" edge="1" parent="1">
                    <mxGeometry width="50" height="50" relative="1" as="geometry">
                        <mxPoint x="440" y="160" as="sourcePoint"/>
                        <mxPoint x="440" y="500" as="targetPoint"/>
                    </mxGeometry>
                </mxCell>
                <mxCell id="4" value="Time" style="text;html=1;strokeColor=none;fillColor=none;align=center;verticalAlign=middle;whiteSpace=wrap;rounded=0;fontSize=18;fontColor=#000000;" vertex="1" parent="1">
                    <mxGeometry x="390" y="160" width="40" height="20" as="geometry"/>
                </mxCell>
                <mxCell id="5" value="Action creator gets called" style="rounded=0;whiteSpace=wrap;html=1;strokeColor=#000000;strokeWidth=2;fillColor=#ffffff;fontSize=18;fontColor=#000000;align=center;" vertex="1" parent="1">
                    <mxGeometry x="460" y="230" width="300" height="60" as="geometry"/>
                </mxCell>
                <mxCell id="10" style="edgeStyle=orthogonalEdgeStyle;rounded=0;html=1;exitX=1;exitY=0.5;entryX=0.25;entryY=0;jettySize=auto;orthogonalLoop=1;strokeColor=#000000;strokeWidth=3;fontSize=38;fontColor=#FF0000;" edge="1" parent="1" source="6" target="9">
                    <mxGeometry relative="1" as="geometry"/>
                </mxCell>
                <mxCell id="6" value="Request issued" style="rounded=0;whiteSpace=wrap;html=1;strokeColor=#000000;strokeWidth=2;fillColor=#ffffff;fontSize=18;fontColor=#000000;align=center;" vertex="1" parent="1">
                    <mxGeometry x="460" y="300" width="300" height="60" as="geometry"/>
                </mxCell>
                <mxCell id="7" value="Request succeeds, reducer picks up comments" style="rounded=0;whiteSpace=wrap;html=1;strokeColor=#000000;strokeWidth=2;fillColor=#ffffff;fontSize=18;fontColor=#000000;align=center;" vertex="1" parent="1">
                    <mxGeometry x="460" y="480" width="300" height="60" as="geometry"/>
                </mxCell>
                <mxCell id="8" value="Test suite checks to see if 2 LI's are visible (nope, failure!)" style="rounded=0;whiteSpace=wrap;html=1;strokeColor=#000000;strokeWidth=2;fillColor=#ffffff;fontSize=18;fontColor=#000000;align=center;" vertex="1" parent="1">
                    <mxGeometry x="460" y="410" width="300" height="60" as="geometry"/>
                </mxCell>
                <mxCell id="11" style="edgeStyle=orthogonalEdgeStyle;rounded=0;html=1;exitX=0.25;exitY=1;entryX=1;entryY=0.5;jettySize=auto;orthogonalLoop=1;strokeColor=#000000;strokeWidth=3;fontSize=38;fontColor=#FF0000;" edge="1" parent="1" source="9" target="7">
                    <mxGeometry relative="1" as="geometry"/>
                </mxCell>
                <mxCell id="9" value="Moxios says I got this!!!" style="rounded=0;whiteSpace=wrap;html=1;strokeColor=#000000;strokeWidth=2;fillColor=#ffffff;fontSize=18;fontColor=#000000;align=center;" vertex="1" parent="1">
                    <mxGeometry x="810" y="360" width="150" height="60" as="geometry"/>
                </mxCell>
                <mxCell id="12" value="" style="endArrow=none;dashed=1;html=1;strokeColor=#000000;strokeWidth=3;fontSize=38;fontColor=#FF0000;" edge="1" parent="1">
                    <mxGeometry width="50" height="50" relative="1" as="geometry">
                        <mxPoint x="760" y="410" as="sourcePoint"/>
                        <mxPoint x="982" y="410" as="targetPoint"/>
                    </mxGeometry>
                </mxCell>
            </root>
        </mxGraphModel>
    </diagram>
    <diagram id="aee079fb-40a8-0dac-17f7-1ab0d66807e7" name="25 - issue">
        <mxGraphModel dx="825" dy="359" grid="1" gridSize="10" guides="1" tooltips="1" connect="1" arrows="1" fold="1" page="1" pageScale="1" pageWidth="3300" pageHeight="4681" background="#ffffff" math="0" shadow="0">
            <root>
                <mxCell id="0"/>
                <mxCell id="1" parent="0"/>
                <mxCell id="2" value="Command Line Environment&lt;br&gt;&lt;br&gt;&lt;br&gt;&lt;br&gt;&lt;br&gt;&lt;br&gt;&lt;br&gt;&lt;br&gt;&lt;br&gt;&lt;br&gt;&lt;br&gt;" style="rounded=0;whiteSpace=wrap;html=1;strokeColor=#6c8ebf;strokeWidth=2;fillColor=#dae8fc;fontSize=18;fontColor=#000000;align=center;fontStyle=1" vertex="1" parent="1">
                    <mxGeometry x="500" y="130" width="340" height="260" as="geometry"/>
                </mxCell>
                <mxCell id="3" value="Jest&lt;br&gt;&lt;br&gt;&lt;br&gt;&lt;br&gt;&lt;br&gt;&lt;br&gt;" style="rounded=0;whiteSpace=wrap;html=1;strokeColor=#82b366;strokeWidth=2;fillColor=#d5e8d4;fontSize=18;fontColor=#000000;align=center;fontStyle=1" vertex="1" parent="1">
                    <mxGeometry x="550" y="200" width="240" height="150" as="geometry"/>
                </mxCell>
                <mxCell id="9" style="edgeStyle=orthogonalEdgeStyle;rounded=0;html=1;exitX=1;exitY=0.5;jettySize=auto;orthogonalLoop=1;strokeColor=#000000;strokeWidth=3;fontSize=18;fontColor=#000000;" edge="1" parent="1" source="7" target="8">
                    <mxGeometry relative="1" as="geometry"/>
                </mxCell>
                <mxCell id="10" value="X" style="text;html=1;resizable=0;points=[];align=center;verticalAlign=middle;labelBackgroundColor=#ffffff;fontSize=38;fontColor=#FF0000;" vertex="1" connectable="0" parent="9">
                    <mxGeometry x="0.059" relative="1" as="geometry">
                        <mxPoint as="offset"/>
                    </mxGeometry>
                </mxCell>
                <mxCell id="7" value="axios" style="rounded=0;whiteSpace=wrap;html=1;strokeColor=#000000;strokeWidth=2;fillColor=#ffffff;fontSize=18;fontColor=#000000;align=center;" vertex="1" parent="1">
                    <mxGeometry x="610" y="270" width="120" height="60" as="geometry"/>
                </mxCell>
                <mxCell id="8" value="Outside API" style="rounded=0;whiteSpace=wrap;html=1;strokeColor=#000000;strokeWidth=2;fillColor=#ffffff;fontSize=18;fontColor=#000000;align=center;" vertex="1" parent="1">
                    <mxGeometry x="910" y="270" width="120" height="60" as="geometry"/>
                </mxCell>
            </root>
        </mxGraphModel>
    </diagram>
    <diagram name="26 - loop" id="55b3d618-7413-6523-4773-d41daf25fcc1">
        <mxGraphModel dx="825" dy="359" grid="1" gridSize="10" guides="1" tooltips="1" connect="1" arrows="1" fold="1" page="1" pageScale="1" pageWidth="3300" pageHeight="4681" background="#ffffff" math="0" shadow="0">
            <root>
                <mxCell id="0"/>
                <mxCell id="1" parent="0"/>
                <mxCell id="2" value="Command Line Environment&lt;br&gt;&lt;br&gt;&lt;br&gt;&lt;br&gt;&lt;br&gt;&lt;br&gt;&lt;br&gt;&lt;br&gt;&lt;br&gt;&lt;br&gt;&lt;br&gt;" style="rounded=0;whiteSpace=wrap;html=1;strokeColor=#6c8ebf;strokeWidth=2;fillColor=#dae8fc;fontSize=18;fontColor=#000000;align=center;fontStyle=1" vertex="1" parent="1">
                    <mxGeometry x="500" y="130" width="430" height="260" as="geometry"/>
                </mxCell>
                <mxCell id="3" value="Jest&lt;br&gt;&lt;br&gt;&lt;br&gt;&lt;br&gt;&lt;br&gt;&lt;br&gt;" style="rounded=0;whiteSpace=wrap;html=1;strokeColor=#82b366;strokeWidth=2;fillColor=#d5e8d4;fontSize=18;fontColor=#000000;align=center;fontStyle=1" vertex="1" parent="1">
                    <mxGeometry x="550" y="200" width="330" height="150" as="geometry"/>
                </mxCell>
                <mxCell id="10" style="edgeStyle=orthogonalEdgeStyle;rounded=0;html=1;exitX=1;exitY=0.75;entryX=0;entryY=0.75;jettySize=auto;orthogonalLoop=1;strokeColor=#000000;strokeWidth=3;fontSize=38;fontColor=#FF0000;" edge="1" parent="1" source="6" target="8">
                    <mxGeometry relative="1" as="geometry"/>
                </mxCell>
                <mxCell id="6" value="axios" style="rounded=0;whiteSpace=wrap;html=1;strokeColor=#000000;strokeWidth=2;fillColor=#ffffff;fontSize=18;fontColor=#000000;align=center;" vertex="1" parent="1">
                    <mxGeometry x="570" y="270" width="120" height="60" as="geometry"/>
                </mxCell>
                <mxCell id="11" style="edgeStyle=orthogonalEdgeStyle;rounded=0;html=1;exitX=0;exitY=0.25;entryX=1;entryY=0.25;jettySize=auto;orthogonalLoop=1;strokeColor=#000000;strokeWidth=3;fontSize=38;fontColor=#FF0000;" edge="1" parent="1" source="8" target="6">
                    <mxGeometry relative="1" as="geometry"/>
                </mxCell>
                <mxCell id="8" value="moxios" style="rounded=0;whiteSpace=wrap;html=1;strokeColor=#000000;strokeWidth=2;fillColor=#ffffff;fontSize=18;fontColor=#000000;align=center;" vertex="1" parent="1">
                    <mxGeometry x="740" y="270" width="120" height="60" as="geometry"/>
                </mxCell>
            </root>
        </mxGraphModel>
    </diagram>
</mxfile>